<?xml version="1.0" encoding="UTF-8" standalone="no"?>
<!DOCTYPE svg PUBLIC "-//W3C//DTD SVG 1.1//EN" "http://www.w3.org/Graphics/SVG/1.1/DTD/svg11.dtd">
<svg viewBox="0 0 1693 1266" version="1.1" xmlns="http://www.w3.org/2000/svg" xmlns:xlink="http://www.w3.org/1999/xlink" xml:space="preserve" xmlns:serif="http://www.serif.com/" style="fill-rule:evenodd;clip-rule:evenodd;stroke-linejoin:round;stroke-miterlimit:2;">
    <g transform="matrix(1,0,0,1,-753.50342,-645.246462)">
        <g transform="matrix(2.342606,0,0,4.166667,0,0)">
            <g transform="matrix(4.018982,0,0,2.259574,-2847.319501,-141.831966)">
                <g transform="matrix(1,0,0,1,968.321892,199.063)">
                    <path d="M0,-1.079C0,36.343 -30.336,66.68 -67.746,66.68C-76.476,66.68 -84.82,65.023 -92.472,62.019C-94.269,61.313 -96.028,60.53 -97.735,59.683C-89.031,55.267 -81.662,48.617 -76.399,40.478C-70.814,31.876 -67.579,21.606 -67.579,10.59C-67.579,-14.944 -84.974,-36.422 -108.558,-42.622C-103.281,-50.775 -95.912,-57.425 -87.208,-61.841C-79.749,-65.628 -71.302,-67.759 -62.367,-67.759C-57.154,-67.759 -52.096,-67.04 -47.308,-65.68C-47.282,-65.667 -47.269,-65.667 -47.244,-65.654C-41.942,-63.985 -36.935,-61.674 -32.3,-58.811C-12.915,-46.897 0,-25.497 0,-1.079" style="fill:rgb(32,0,214);fill-rule:nonzero;"/>
                </g>
                <g transform="matrix(1,0,0,1,883.552992,152.7301)">
                    <path d="M0,89.442C-4.249,94.372 -9.474,98.48 -15.303,101.446C-22.287,105.002 -29.861,106.799 -37.821,106.799C-42.583,106.799 -47.269,106.144 -51.737,104.848C-56.487,103.307 -61.096,101.176 -65.422,98.493C-65.563,98.39 -65.743,98.275 -65.948,98.146C-84.178,86.592 -95.052,66.822 -95.052,45.254C-95.052,10.733 -66.963,-17.357 -32.441,-17.357C-26.048,-17.357 -19.77,-16.394 -13.711,-14.507C-19.347,-10.257 -24.264,-4.994 -28.102,0.912C-34.418,10.63 -37.756,21.928 -37.756,33.597C-37.756,58.374 -22.736,80.378 0,89.442" style="fill:rgb(41,171,226);fill-rule:nonzero;"/>
                </g>
            </g>
        </g>
    </g>
</svg>
