<svg width="400" height="338" viewBox="0 0 400 338" fill="none" xmlns="http://www.w3.org/2000/svg">
<rect width="400" height="338" rx="25" fill="white"/>
<path d="M60 281.5H360" stroke="#DBDEE4"/>
<path d="M60 247.5H360" stroke="#DBDEE4"/>
<path d="M60 213.5H360" stroke="#DBDEE4"/>
<path d="M60 179.5H360" stroke="#DBDEE4"/>
<path d="M60 145.5H360" stroke="#DBDEE4"/>
<path d="M60 111.5H360" stroke="#DBDEE4"/>
<path d="M60 77.5H360" stroke="#DBDEE4"/>
<path d="M60 281.5H360" stroke="#B9BECE" stroke-linecap="round"/>
<path d="M48.25 286.119C47.608 286.119 47.0611 285.945 46.6094 285.595C46.1577 285.243 45.8125 284.733 45.5739 284.065C45.3352 283.395 45.2159 282.585 45.2159 281.636C45.2159 280.693 45.3352 279.888 45.5739 279.22C45.8153 278.55 46.1619 278.038 46.6136 277.686C47.0682 277.331 47.6136 277.153 48.25 277.153C48.8864 277.153 49.4304 277.331 49.8821 277.686C50.3366 278.038 50.6832 278.55 50.9219 279.22C51.1634 279.888 51.2841 280.693 51.2841 281.636C51.2841 282.585 51.1648 283.395 50.9261 284.065C50.6875 284.733 50.3423 285.243 49.8906 285.595C49.4389 285.945 48.892 286.119 48.25 286.119ZM48.25 285.182C48.8864 285.182 49.3807 284.875 49.733 284.261C50.0852 283.648 50.2614 282.773 50.2614 281.636C50.2614 280.881 50.1804 280.237 50.0185 279.706C49.8594 279.175 49.6293 278.77 49.3281 278.491C49.0298 278.213 48.6705 278.074 48.25 278.074C47.6193 278.074 47.1264 278.385 46.7713 279.007C46.4162 279.626 46.2386 280.503 46.2386 281.636C46.2386 282.392 46.3182 283.034 46.4773 283.562C46.6364 284.091 46.8651 284.493 47.1634 284.768C47.4645 285.044 47.8267 285.182 48.25 285.182Z" fill="#54555A"/>
<path d="M33.2116 252.119C32.6491 252.119 32.1477 252.023 31.7074 251.83C31.2699 251.636 30.9219 251.368 30.6634 251.024C30.4077 250.678 30.2685 250.276 30.2457 249.818H31.3196C31.3423 250.099 31.4389 250.342 31.6094 250.547C31.7798 250.749 32.0028 250.905 32.2784 251.016C32.554 251.126 32.8594 251.182 33.1946 251.182C33.5696 251.182 33.902 251.116 34.1918 250.986C34.4815 250.855 34.7088 250.673 34.8736 250.44C35.0384 250.207 35.1207 249.938 35.1207 249.631C35.1207 249.31 35.0412 249.027 34.8821 248.783C34.723 248.536 34.4901 248.342 34.1832 248.203C33.8764 248.064 33.5014 247.994 33.0582 247.994H32.3594V247.057H33.0582C33.4048 247.057 33.7088 246.994 33.9702 246.869C34.2344 246.744 34.4403 246.568 34.5881 246.341C34.7386 246.114 34.8139 245.847 34.8139 245.54C34.8139 245.244 34.7486 244.987 34.6179 244.768C34.4872 244.55 34.3026 244.379 34.0639 244.257C33.8281 244.135 33.5497 244.074 33.2287 244.074C32.9276 244.074 32.6435 244.129 32.3764 244.24C32.1122 244.348 31.8963 244.506 31.7287 244.713C31.5611 244.918 31.4702 245.165 31.456 245.455H30.4332C30.4503 244.997 30.5881 244.597 30.8466 244.253C31.1051 243.906 31.4432 243.636 31.8608 243.443C32.2813 243.25 32.7429 243.153 33.2457 243.153C33.7855 243.153 34.2486 243.263 34.6349 243.482C35.0213 243.697 35.3182 243.983 35.5256 244.338C35.733 244.693 35.8366 245.077 35.8366 245.489C35.8366 245.98 35.7074 246.399 35.4489 246.746C35.1932 247.092 34.8452 247.332 34.4048 247.466V247.534C34.956 247.625 35.3864 247.859 35.696 248.237C36.0057 248.612 36.1605 249.077 36.1605 249.631C36.1605 250.105 36.0313 250.531 35.7727 250.909C35.517 251.284 35.1676 251.58 34.7244 251.795C34.2813 252.011 33.777 252.119 33.2116 252.119ZM40.75 252.119C40.108 252.119 39.5611 251.945 39.1094 251.595C38.6577 251.243 38.3125 250.733 38.0739 250.065C37.8352 249.395 37.7159 248.585 37.7159 247.636C37.7159 246.693 37.8352 245.888 38.0739 245.22C38.3153 244.55 38.6619 244.038 39.1136 243.686C39.5682 243.331 40.1136 243.153 40.75 243.153C41.3864 243.153 41.9304 243.331 42.3821 243.686C42.8366 244.038 43.1832 244.55 43.4219 245.22C43.6634 245.888 43.7841 246.693 43.7841 247.636C43.7841 248.585 43.6648 249.395 43.4261 250.065C43.1875 250.733 42.8423 251.243 42.3906 251.595C41.9389 251.945 41.392 252.119 40.75 252.119ZM40.75 251.182C41.3864 251.182 41.8807 250.875 42.233 250.261C42.5852 249.648 42.7614 248.773 42.7614 247.636C42.7614 246.881 42.6804 246.237 42.5185 245.706C42.3594 245.175 42.1293 244.77 41.8281 244.491C41.5298 244.213 41.1705 244.074 40.75 244.074C40.1193 244.074 39.6264 244.385 39.2713 245.007C38.9162 245.626 38.7386 246.503 38.7386 247.636C38.7386 248.392 38.8182 249.034 38.9773 249.562C39.1364 250.091 39.3651 250.493 39.6634 250.768C39.9645 251.044 40.3267 251.182 40.75 251.182ZM48.25 252.119C47.608 252.119 47.0611 251.945 46.6094 251.595C46.1577 251.243 45.8125 250.733 45.5739 250.065C45.3352 249.395 45.2159 248.585 45.2159 247.636C45.2159 246.693 45.3352 245.888 45.5739 245.22C45.8153 244.55 46.1619 244.038 46.6136 243.686C47.0682 243.331 47.6136 243.153 48.25 243.153C48.8864 243.153 49.4304 243.331 49.8821 243.686C50.3366 244.038 50.6832 244.55 50.9219 245.22C51.1634 245.888 51.2841 246.693 51.2841 247.636C51.2841 248.585 51.1648 249.395 50.9261 250.065C50.6875 250.733 50.3423 251.243 49.8906 251.595C49.4389 251.945 48.892 252.119 48.25 252.119ZM48.25 251.182C48.8864 251.182 49.3807 250.875 49.733 250.261C50.0852 249.648 50.2614 248.773 50.2614 247.636C50.2614 246.881 50.1804 246.237 50.0185 245.706C49.8594 245.175 49.6293 244.77 49.3281 244.491C49.0298 244.213 48.6705 244.074 48.25 244.074C47.6193 244.074 47.1264 244.385 46.7713 245.007C46.4162 245.626 46.2386 246.503 46.2386 247.636C46.2386 248.392 46.3182 249.034 46.4773 249.562C46.6364 250.091 46.8651 250.493 47.1634 250.768C47.4645 251.044 47.8267 251.182 48.25 251.182Z" fill="#54555A"/>
<path d="M33.3129 218.119C32.9549 218.114 32.5969 218.045 32.239 217.915C31.881 217.784 31.5543 217.564 31.2589 217.254C30.9634 216.942 30.7262 216.52 30.5472 215.989C30.3683 215.455 30.2788 214.784 30.2788 213.977C30.2788 213.205 30.3512 212.52 30.4961 211.923C30.641 211.324 30.8512 210.82 31.1268 210.411C31.4023 209.999 31.7347 209.686 32.1239 209.473C32.516 209.26 32.9577 209.153 33.4492 209.153C33.9379 209.153 34.3725 209.251 34.7532 209.447C35.1367 209.641 35.4492 209.911 35.6907 210.257C35.9322 210.604 36.0884 211.003 36.1594 211.455H35.1197C35.0231 211.062 34.8356 210.737 34.5572 210.479C34.2788 210.22 33.9094 210.091 33.4492 210.091C32.7731 210.091 32.2404 210.385 31.8512 210.973C31.4648 211.561 31.2702 212.386 31.2674 213.449H31.3356C31.4947 213.207 31.6836 213.001 31.9023 212.831C32.1239 212.658 32.3683 212.524 32.6353 212.43C32.9023 212.337 33.185 212.29 33.4833 212.29C33.9833 212.29 34.4407 212.415 34.8555 212.665C35.2702 212.912 35.6026 213.254 35.8526 213.692C36.1026 214.126 36.2276 214.625 36.2276 215.188C36.2276 215.727 36.1069 216.222 35.8654 216.67C35.6239 217.116 35.2844 217.472 34.8469 217.736C34.4123 217.997 33.9009 218.125 33.3129 218.119ZM33.3129 217.182C33.6708 217.182 33.9918 217.092 34.2759 216.913C34.5629 216.734 34.7887 216.494 34.9535 216.193C35.1211 215.892 35.2049 215.557 35.2049 215.188C35.2049 214.827 35.1239 214.499 34.962 214.203C34.8029 213.905 34.5827 213.668 34.3015 213.491C34.0231 213.315 33.7049 213.227 33.3469 213.227C33.0771 213.227 32.8256 213.281 32.5927 213.389C32.3597 213.494 32.1552 213.639 31.979 213.824C31.8058 214.009 31.6694 214.22 31.57 214.459C31.4705 214.695 31.4208 214.943 31.4208 215.205C31.4208 215.551 31.5018 215.875 31.6637 216.176C31.8285 216.477 32.0529 216.72 32.337 216.905C32.6239 217.089 32.9492 217.182 33.3129 217.182ZM40.75 218.119C40.108 218.119 39.5611 217.945 39.1094 217.595C38.6577 217.243 38.3125 216.733 38.0739 216.065C37.8352 215.395 37.7159 214.585 37.7159 213.636C37.7159 212.693 37.8352 211.888 38.0739 211.22C38.3153 210.55 38.6619 210.038 39.1136 209.686C39.5682 209.331 40.1136 209.153 40.75 209.153C41.3864 209.153 41.9304 209.331 42.3821 209.686C42.8366 210.038 43.1832 210.55 43.4219 211.22C43.6634 211.888 43.7841 212.693 43.7841 213.636C43.7841 214.585 43.6648 215.395 43.4261 216.065C43.1875 216.733 42.8423 217.243 42.3906 217.595C41.9389 217.945 41.392 218.119 40.75 218.119ZM40.75 217.182C41.3864 217.182 41.8807 216.875 42.233 216.261C42.5852 215.648 42.7614 214.773 42.7614 213.636C42.7614 212.881 42.6804 212.237 42.5185 211.706C42.3594 211.175 42.1293 210.77 41.8281 210.491C41.5298 210.213 41.1705 210.074 40.75 210.074C40.1193 210.074 39.6264 210.385 39.2713 211.007C38.9162 211.626 38.7386 212.503 38.7386 213.636C38.7386 214.392 38.8182 215.034 38.9773 215.562C39.1364 216.091 39.3651 216.493 39.6634 216.768C39.9645 217.044 40.3267 217.182 40.75 217.182ZM48.25 218.119C47.608 218.119 47.0611 217.945 46.6094 217.595C46.1577 217.243 45.8125 216.733 45.5739 216.065C45.3352 215.395 45.2159 214.585 45.2159 213.636C45.2159 212.693 45.3352 211.888 45.5739 211.22C45.8153 210.55 46.1619 210.038 46.6136 209.686C47.0682 209.331 47.6136 209.153 48.25 209.153C48.8864 209.153 49.4304 209.331 49.8821 209.686C50.3366 210.038 50.6832 210.55 50.9219 211.22C51.1634 211.888 51.2841 212.693 51.2841 213.636C51.2841 214.585 51.1648 215.395 50.9261 216.065C50.6875 216.733 50.3423 217.243 49.8906 217.595C49.4389 217.945 48.892 218.119 48.25 218.119ZM48.25 217.182C48.8864 217.182 49.3807 216.875 49.733 216.261C50.0852 215.648 50.2614 214.773 50.2614 213.636C50.2614 212.881 50.1804 212.237 50.0185 211.706C49.8594 211.175 49.6293 210.77 49.3281 210.491C49.0298 210.213 48.6705 210.074 48.25 210.074C47.6193 210.074 47.1264 210.385 46.7713 211.007C46.4162 211.626 46.2386 212.503 46.2386 213.636C46.2386 214.392 46.3182 215.034 46.4773 215.562C46.6364 216.091 46.8651 216.493 47.1634 216.768C47.4645 217.044 47.8267 217.182 48.25 217.182Z" fill="#54555A"/>
<path d="M33.1935 175.153C33.5515 175.156 33.9094 175.224 34.2674 175.358C34.6254 175.491 34.9521 175.713 35.2475 176.023C35.543 176.33 35.7802 176.749 35.9592 177.28C36.1381 177.811 36.2276 178.477 36.2276 179.278C36.2276 180.054 36.1538 180.743 36.006 181.345C35.8612 181.945 35.6509 182.45 35.3754 182.862C35.1026 183.274 34.7702 183.587 34.3782 183.8C33.989 184.013 33.5487 184.119 33.0572 184.119C32.5685 184.119 32.1325 184.023 31.7489 183.83C31.3683 183.634 31.0558 183.362 30.8114 183.016C30.57 182.666 30.4151 182.261 30.3469 181.801H31.3867C31.4805 182.202 31.6665 182.533 31.945 182.794C32.2262 183.053 32.5969 183.182 33.0572 183.182C33.7305 183.182 34.2617 182.888 34.6509 182.3C35.043 181.712 35.239 180.881 35.239 179.807H35.1708C35.0117 180.045 34.8228 180.251 34.604 180.425C34.3853 180.598 34.1424 180.732 33.8754 180.825C33.6083 180.919 33.3242 180.966 33.0231 180.966C32.5231 180.966 32.0643 180.842 31.6467 180.595C31.2319 180.345 30.8995 180.003 30.6495 179.568C30.4023 179.131 30.2788 178.631 30.2788 178.068C30.2788 177.534 30.3981 177.045 30.6367 176.602C30.8782 176.156 31.2163 175.801 31.6509 175.537C32.0884 175.273 32.6026 175.145 33.1935 175.153ZM33.1935 176.091C32.8356 176.091 32.5131 176.18 32.2262 176.359C31.9421 176.536 31.7163 176.774 31.5487 177.075C31.3839 177.374 31.3015 177.705 31.3015 178.068C31.3015 178.432 31.381 178.763 31.5401 179.061C31.7021 179.357 31.9222 179.592 32.2006 179.768C32.4819 179.942 32.8015 180.028 33.1594 180.028C33.4293 180.028 33.6808 179.976 33.9137 179.871C34.1467 179.763 34.3498 179.616 34.5231 179.432C34.6992 179.244 34.837 179.033 34.9364 178.797C35.0359 178.558 35.0856 178.31 35.0856 178.051C35.0856 177.71 35.0032 177.391 34.8384 177.092C34.6765 176.794 34.4521 176.553 34.1651 176.368C33.881 176.183 33.5572 176.091 33.1935 176.091ZM40.75 184.119C40.108 184.119 39.5611 183.945 39.1094 183.595C38.6577 183.243 38.3125 182.733 38.0739 182.065C37.8352 181.395 37.7159 180.585 37.7159 179.636C37.7159 178.693 37.8352 177.888 38.0739 177.22C38.3153 176.55 38.6619 176.038 39.1136 175.686C39.5682 175.331 40.1136 175.153 40.75 175.153C41.3864 175.153 41.9304 175.331 42.3821 175.686C42.8366 176.038 43.1832 176.55 43.4219 177.22C43.6634 177.888 43.7841 178.693 43.7841 179.636C43.7841 180.585 43.6648 181.395 43.4261 182.065C43.1875 182.733 42.8423 183.243 42.3906 183.595C41.9389 183.945 41.392 184.119 40.75 184.119ZM40.75 183.182C41.3864 183.182 41.8807 182.875 42.233 182.261C42.5852 181.648 42.7614 180.773 42.7614 179.636C42.7614 178.881 42.6804 178.237 42.5185 177.706C42.3594 177.175 42.1293 176.77 41.8281 176.491C41.5298 176.213 41.1705 176.074 40.75 176.074C40.1193 176.074 39.6264 176.385 39.2713 177.007C38.9162 177.626 38.7386 178.503 38.7386 179.636C38.7386 180.392 38.8182 181.034 38.9773 181.562C39.1364 182.091 39.3651 182.493 39.6634 182.768C39.9645 183.044 40.3267 183.182 40.75 183.182ZM48.25 184.119C47.608 184.119 47.0611 183.945 46.6094 183.595C46.1577 183.243 45.8125 182.733 45.5739 182.065C45.3352 181.395 45.2159 180.585 45.2159 179.636C45.2159 178.693 45.3352 177.888 45.5739 177.22C45.8153 176.55 46.1619 176.038 46.6136 175.686C47.0682 175.331 47.6136 175.153 48.25 175.153C48.8864 175.153 49.4304 175.331 49.8821 175.686C50.3366 176.038 50.6832 176.55 50.9219 177.22C51.1634 177.888 51.2841 178.693 51.2841 179.636C51.2841 180.585 51.1648 181.395 50.9261 182.065C50.6875 182.733 50.3423 183.243 49.8906 183.595C49.4389 183.945 48.892 184.119 48.25 184.119ZM48.25 183.182C48.8864 183.182 49.3807 182.875 49.733 182.261C50.0852 181.648 50.2614 180.773 50.2614 179.636C50.2614 178.881 50.1804 178.237 50.0185 177.706C49.8594 177.175 49.6293 176.77 49.3281 176.491C49.0298 176.213 48.6705 176.074 48.25 176.074C47.6193 176.074 47.1264 176.385 46.7713 177.007C46.4162 177.626 46.2386 178.503 46.2386 179.636C46.2386 180.392 46.3182 181.034 46.4773 181.562C46.6364 182.091 46.8651 182.493 47.1634 182.768C47.4645 183.044 47.8267 183.182 48.25 183.182Z" fill="#54555A"/>
<path d="M25.2802 141.273V150H24.2234V142.381H24.1722L22.0415 143.795V142.722L24.2234 141.273H25.2802ZM28.7915 148.807L28.7234 149.267C28.6751 149.591 28.6012 149.938 28.5018 150.307C28.4052 150.676 28.3043 151.024 28.1992 151.351C28.0941 151.678 28.0075 151.938 27.9393 152.131H27.1722C27.2092 151.949 27.2575 151.709 27.3171 151.411C27.3768 151.112 27.4364 150.778 27.4961 150.409C27.5586 150.043 27.6097 149.668 27.6495 149.284L27.7006 148.807H28.7915ZM30.6378 150V149.233L33.5185 146.08C33.8565 145.71 34.1349 145.389 34.3537 145.116C34.5724 144.841 34.7344 144.582 34.8395 144.341C34.9474 144.097 35.0014 143.841 35.0014 143.574C35.0014 143.267 34.9276 143.001 34.7798 142.777C34.6349 142.553 34.4361 142.379 34.1832 142.257C33.9304 142.135 33.6463 142.074 33.331 142.074C32.9957 142.074 32.7031 142.143 32.4531 142.283C32.206 142.419 32.0142 142.611 31.8778 142.858C31.7443 143.105 31.6776 143.395 31.6776 143.727H30.6719C30.6719 143.216 30.7898 142.767 31.0256 142.381C31.2614 141.994 31.5824 141.693 31.9886 141.477C32.3977 141.261 32.8565 141.153 33.3651 141.153C33.8764 141.153 34.3295 141.261 34.7244 141.477C35.1193 141.693 35.429 141.984 35.6534 142.351C35.8778 142.717 35.9901 143.125 35.9901 143.574C35.9901 143.895 35.9318 144.209 35.8153 144.516C35.7017 144.82 35.5028 145.159 35.2188 145.534C34.9375 145.906 34.5469 146.361 34.0469 146.898L32.0866 148.994V149.062H36.1435V150H30.6378ZM40.75 150.119C40.108 150.119 39.5611 149.945 39.1094 149.595C38.6577 149.243 38.3125 148.733 38.0739 148.065C37.8352 147.395 37.7159 146.585 37.7159 145.636C37.7159 144.693 37.8352 143.888 38.0739 143.22C38.3153 142.55 38.6619 142.038 39.1136 141.686C39.5682 141.331 40.1136 141.153 40.75 141.153C41.3864 141.153 41.9304 141.331 42.3821 141.686C42.8366 142.038 43.1832 142.55 43.4219 143.22C43.6634 143.888 43.7841 144.693 43.7841 145.636C43.7841 146.585 43.6648 147.395 43.4261 148.065C43.1875 148.733 42.8423 149.243 42.3906 149.595C41.9389 149.945 41.392 150.119 40.75 150.119ZM40.75 149.182C41.3864 149.182 41.8807 148.875 42.233 148.261C42.5852 147.648 42.7614 146.773 42.7614 145.636C42.7614 144.881 42.6804 144.237 42.5185 143.706C42.3594 143.175 42.1293 142.77 41.8281 142.491C41.5298 142.213 41.1705 142.074 40.75 142.074C40.1193 142.074 39.6264 142.385 39.2713 143.007C38.9162 143.626 38.7386 144.503 38.7386 145.636C38.7386 146.392 38.8182 147.034 38.9773 147.562C39.1364 148.091 39.3651 148.493 39.6634 148.768C39.9645 149.044 40.3267 149.182 40.75 149.182ZM48.25 150.119C47.608 150.119 47.0611 149.945 46.6094 149.595C46.1577 149.243 45.8125 148.733 45.5739 148.065C45.3352 147.395 45.2159 146.585 45.2159 145.636C45.2159 144.693 45.3352 143.888 45.5739 143.22C45.8153 142.55 46.1619 142.038 46.6136 141.686C47.0682 141.331 47.6136 141.153 48.25 141.153C48.8864 141.153 49.4304 141.331 49.8821 141.686C50.3366 142.038 50.6832 142.55 50.9219 143.22C51.1634 143.888 51.2841 144.693 51.2841 145.636C51.2841 146.585 51.1648 147.395 50.9261 148.065C50.6875 148.733 50.3423 149.243 49.8906 149.595C49.4389 149.945 48.892 150.119 48.25 150.119ZM48.25 149.182C48.8864 149.182 49.3807 148.875 49.733 148.261C50.0852 147.648 50.2614 146.773 50.2614 145.636C50.2614 144.881 50.1804 144.237 50.0185 143.706C49.8594 143.175 49.6293 142.77 49.3281 142.491C49.0298 142.213 48.6705 142.074 48.25 142.074C47.6193 142.074 47.1264 142.385 46.7713 143.007C46.4162 143.626 46.2386 144.503 46.2386 145.636C46.2386 146.392 46.3182 147.034 46.4773 147.562C46.6364 148.091 46.8651 148.493 47.1634 148.768C47.4645 149.044 47.8267 149.182 48.25 149.182Z" fill="#54555A"/>
<path d="M25.4208 107.273V116H24.364V108.381H24.3129L22.1822 109.795V108.722L24.364 107.273H25.4208ZM28.9322 114.807L28.864 115.267C28.8157 115.591 28.7418 115.938 28.6424 116.307C28.5458 116.676 28.445 117.024 28.3398 117.351C28.2347 117.678 28.1481 117.938 28.0799 118.131H27.3129C27.3498 117.949 27.3981 117.709 27.4577 117.411C27.5174 117.112 27.5771 116.778 27.6367 116.409C27.6992 116.043 27.7504 115.668 27.7901 115.284L27.8413 114.807H28.9322ZM33.3299 116.119C32.8299 116.119 32.3796 116.02 31.979 115.821C31.5785 115.622 31.2575 115.349 31.016 115.003C30.7745 114.656 30.6424 114.261 30.6197 113.818H31.6424C31.6822 114.213 31.8612 114.54 32.1793 114.798C32.5004 115.054 32.8839 115.182 33.3299 115.182C33.6879 115.182 34.006 115.098 34.2844 114.93C34.5657 114.763 34.7859 114.533 34.945 114.24C35.1069 113.945 35.1879 113.611 35.1879 113.239C35.1879 112.858 35.104 112.518 34.9364 112.22C34.7717 111.919 34.5444 111.682 34.2546 111.509C33.9648 111.335 33.6339 111.247 33.2617 111.244C32.9947 111.241 32.7205 111.283 32.4393 111.368C32.158 111.45 31.9265 111.557 31.7447 111.688L30.756 111.568L31.2844 107.273H35.8185V108.21H32.1708L31.864 110.784H31.9151C32.0941 110.642 32.3185 110.524 32.5884 110.43C32.8583 110.337 33.1396 110.29 33.4322 110.29C33.9663 110.29 34.4421 110.418 34.8597 110.673C35.2802 110.926 35.6097 111.273 35.8484 111.713C36.0898 112.153 36.2106 112.656 36.2106 113.222C36.2106 113.778 36.0856 114.276 35.8356 114.713C35.5884 115.148 35.2475 115.491 34.8129 115.744C34.3782 115.994 33.8839 116.119 33.3299 116.119ZM40.75 116.119C40.108 116.119 39.5611 115.945 39.1094 115.595C38.6577 115.243 38.3125 114.733 38.0739 114.065C37.8352 113.395 37.7159 112.585 37.7159 111.636C37.7159 110.693 37.8352 109.888 38.0739 109.22C38.3153 108.55 38.6619 108.038 39.1136 107.686C39.5682 107.331 40.1136 107.153 40.75 107.153C41.3864 107.153 41.9304 107.331 42.3821 107.686C42.8366 108.038 43.1832 108.55 43.4219 109.22C43.6634 109.888 43.7841 110.693 43.7841 111.636C43.7841 112.585 43.6648 113.395 43.4261 114.065C43.1875 114.733 42.8423 115.243 42.3906 115.595C41.9389 115.945 41.392 116.119 40.75 116.119ZM40.75 115.182C41.3864 115.182 41.8807 114.875 42.233 114.261C42.5852 113.648 42.7614 112.773 42.7614 111.636C42.7614 110.881 42.6804 110.237 42.5185 109.706C42.3594 109.175 42.1293 108.77 41.8281 108.491C41.5298 108.213 41.1705 108.074 40.75 108.074C40.1193 108.074 39.6264 108.385 39.2713 109.007C38.9162 109.626 38.7386 110.503 38.7386 111.636C38.7386 112.392 38.8182 113.034 38.9773 113.562C39.1364 114.091 39.3651 114.493 39.6634 114.768C39.9645 115.044 40.3267 115.182 40.75 115.182ZM48.25 116.119C47.608 116.119 47.0611 115.945 46.6094 115.595C46.1577 115.243 45.8125 114.733 45.5739 114.065C45.3352 113.395 45.2159 112.585 45.2159 111.636C45.2159 110.693 45.3352 109.888 45.5739 109.22C45.8153 108.55 46.1619 108.038 46.6136 107.686C47.0682 107.331 47.6136 107.153 48.25 107.153C48.8864 107.153 49.4304 107.331 49.8821 107.686C50.3366 108.038 50.6832 108.55 50.9219 109.22C51.1634 109.888 51.2841 110.693 51.2841 111.636C51.2841 112.585 51.1648 113.395 50.9261 114.065C50.6875 114.733 50.3423 115.243 49.8906 115.595C49.4389 115.945 48.892 116.119 48.25 116.119ZM48.25 115.182C48.8864 115.182 49.3807 114.875 49.733 114.261C50.0852 113.648 50.2614 112.773 50.2614 111.636C50.2614 110.881 50.1804 110.237 50.0185 109.706C49.8594 109.175 49.6293 108.77 49.3281 108.491C49.0298 108.213 48.6705 108.074 48.25 108.074C47.6193 108.074 47.1264 108.385 46.7713 109.007C46.4162 109.626 46.2386 110.503 46.2386 111.636C46.2386 112.392 46.3182 113.034 46.4773 113.562C46.6364 114.091 46.8651 114.493 47.1634 114.768C47.4645 115.044 47.8267 115.182 48.25 115.182Z" fill="#54555A"/>
<path d="M25.4208 73.2727V82H24.364V74.3807H24.3129L22.1822 75.7955V74.7216L24.364 73.2727H25.4208ZM28.9322 80.8068L28.864 81.267C28.8157 81.5909 28.7418 81.9375 28.6424 82.3068C28.5458 82.6761 28.445 83.0241 28.3398 83.3509C28.2347 83.6776 28.1481 83.9375 28.0799 84.1307H27.3129C27.3498 83.9489 27.3981 83.7088 27.4577 83.4105C27.5174 83.1122 27.5771 82.7784 27.6367 82.4091C27.6992 82.0426 27.7504 81.6676 27.7901 81.2841L27.8413 80.8068H28.9322ZM33.3043 82.1193C32.7191 82.1193 32.2021 82.0156 31.7532 81.8082C31.3072 81.598 30.9592 81.3097 30.7092 80.9432C30.4592 80.5739 30.3356 80.1534 30.3384 79.6818C30.3356 79.3125 30.408 78.9716 30.5558 78.6591C30.7035 78.3437 30.9052 78.081 31.1609 77.8707C31.4194 77.6577 31.7077 77.5227 32.0259 77.4659V77.4148C31.6083 77.3068 31.2759 77.0724 31.0288 76.7116C30.7816 76.348 30.6594 75.9347 30.6623 75.4716C30.6594 75.0284 30.7717 74.6321 30.9989 74.2827C31.2262 73.9332 31.5387 73.6577 31.9364 73.456C32.337 73.2543 32.793 73.1534 33.3043 73.1534C33.81 73.1534 34.2617 73.2543 34.6594 73.456C35.0572 73.6577 35.3697 73.9332 35.5969 74.2827C35.8271 74.6321 35.9435 75.0284 35.9464 75.4716C35.9435 75.9347 35.8171 76.348 35.5671 76.7116C35.32 77.0724 34.9918 77.3068 34.5827 77.4148V77.4659C34.8981 77.5227 35.1822 77.6577 35.435 77.8707C35.6879 78.081 35.8896 78.3437 36.0401 78.6591C36.1907 78.9716 36.2674 79.3125 36.2702 79.6818C36.2674 80.1534 36.1396 80.5739 35.8867 80.9432C35.6367 81.3097 35.2887 81.598 34.8427 81.8082C34.3995 82.0156 33.8867 82.1193 33.3043 82.1193ZM33.3043 81.1818C33.6992 81.1818 34.0401 81.1179 34.3271 80.9901C34.614 80.8622 34.8356 80.6818 34.9918 80.4489C35.1481 80.2159 35.2276 79.9432 35.2305 79.6307C35.2276 79.3011 35.1424 79.0099 34.9748 78.7571C34.8072 78.5043 34.5785 78.3054 34.2887 78.1605C34.0018 78.0156 33.6737 77.9432 33.3043 77.9432C32.9322 77.9432 32.5998 78.0156 32.3072 78.1605C32.0174 78.3054 31.7887 78.5043 31.6211 78.7571C31.4563 79.0099 31.3754 79.3011 31.3782 79.6307C31.3754 79.9432 31.4506 80.2159 31.604 80.4489C31.7603 80.6818 31.9833 80.8622 32.2731 80.9901C32.5629 81.1179 32.9066 81.1818 33.3043 81.1818ZM33.3043 77.0398C33.6168 77.0398 33.8938 76.9773 34.1353 76.8523C34.3796 76.7273 34.5714 76.5526 34.7106 76.3281C34.8498 76.1037 34.9208 75.8409 34.9237 75.5398C34.9208 75.2443 34.8512 74.9872 34.7148 74.7685C34.5785 74.5469 34.3896 74.3764 34.1481 74.2571C33.9066 74.1349 33.6254 74.0739 33.3043 74.0739C32.9776 74.0739 32.6921 74.1349 32.4478 74.2571C32.2035 74.3764 32.0146 74.5469 31.881 74.7685C31.7475 74.9872 31.6822 75.2443 31.685 75.5398C31.6822 75.8409 31.7489 76.1037 31.8853 76.3281C32.0245 76.5526 32.2163 76.7273 32.4606 76.8523C32.7049 76.9773 32.9862 77.0398 33.3043 77.0398ZM40.75 82.1193C40.108 82.1193 39.5611 81.9446 39.1094 81.5952C38.6577 81.2429 38.3125 80.733 38.0739 80.0653C37.8352 79.3949 37.7159 78.5852 37.7159 77.6364C37.7159 76.6932 37.8352 75.8878 38.0739 75.2202C38.3153 74.5497 38.6619 74.0384 39.1136 73.6861C39.5682 73.331 40.1136 73.1534 40.75 73.1534C41.3864 73.1534 41.9304 73.331 42.3821 73.6861C42.8366 74.0384 43.1832 74.5497 43.4219 75.2202C43.6634 75.8878 43.7841 76.6932 43.7841 77.6364C43.7841 78.5852 43.6648 79.3949 43.4261 80.0653C43.1875 80.733 42.8423 81.2429 42.3906 81.5952C41.9389 81.9446 41.392 82.1193 40.75 82.1193ZM40.75 81.1818C41.3864 81.1818 41.8807 80.875 42.233 80.2614C42.5852 79.6477 42.7614 78.7727 42.7614 77.6364C42.7614 76.8807 42.6804 76.2372 42.5185 75.706C42.3594 75.1747 42.1293 74.7699 41.8281 74.4915C41.5298 74.2131 41.1705 74.0739 40.75 74.0739C40.1193 74.0739 39.6264 74.3849 39.2713 75.0071C38.9162 75.6264 38.7386 76.5028 38.7386 77.6364C38.7386 78.392 38.8182 79.0341 38.9773 79.5625C39.1364 80.0909 39.3651 80.4929 39.6634 80.7685C39.9645 81.044 40.3267 81.1818 40.75 81.1818ZM48.25 82.1193C47.608 82.1193 47.0611 81.9446 46.6094 81.5952C46.1577 81.2429 45.8125 80.733 45.5739 80.0653C45.3352 79.3949 45.2159 78.5852 45.2159 77.6364C45.2159 76.6932 45.3352 75.8878 45.5739 75.2202C45.8153 74.5497 46.1619 74.0384 46.6136 73.6861C47.0682 73.331 47.6136 73.1534 48.25 73.1534C48.8864 73.1534 49.4304 73.331 49.8821 73.6861C50.3366 74.0384 50.6832 74.5497 50.9219 75.2202C51.1634 75.8878 51.2841 76.6932 51.2841 77.6364C51.2841 78.5852 51.1648 79.3949 50.9261 80.0653C50.6875 80.733 50.3423 81.2429 49.8906 81.5952C49.4389 81.9446 48.892 82.1193 48.25 82.1193ZM48.25 81.1818C48.8864 81.1818 49.3807 80.875 49.733 80.2614C50.0852 79.6477 50.2614 78.7727 50.2614 77.6364C50.2614 76.8807 50.1804 76.2372 50.0185 75.706C49.8594 75.1747 49.6293 74.7699 49.3281 74.4915C49.0298 74.2131 48.6705 74.0739 48.25 74.0739C47.6193 74.0739 47.1264 74.3849 46.7713 75.0071C46.4162 75.6264 46.2386 76.5028 46.2386 77.6364C46.2386 78.392 46.3182 79.0341 46.4773 79.5625C46.6364 80.0909 46.8651 80.4929 47.1634 80.7685C47.4645 81.044 47.8267 81.1818 48.25 81.1818Z" fill="#54555A"/>
<path d="M68.5273 300.126V299.359L71.408 296.206C71.7461 295.836 72.0245 295.515 72.2432 295.242C72.462 294.967 72.6239 294.708 72.729 294.467C72.837 294.223 72.8909 293.967 72.8909 293.7C72.8909 293.393 72.8171 293.127 72.6694 292.903C72.5245 292.679 72.3256 292.505 72.0728 292.383C71.8199 292.261 71.5358 292.2 71.2205 292.2C70.8853 292.2 70.5927 292.269 70.3427 292.409C70.0955 292.545 69.9037 292.737 69.7674 292.984C69.6338 293.231 69.5671 293.521 69.5671 293.853H68.5614C68.5614 293.342 68.6793 292.893 68.9151 292.507C69.1509 292.12 69.4719 291.819 69.8782 291.603C70.2873 291.387 70.7461 291.279 71.2546 291.279C71.7659 291.279 72.2191 291.387 72.614 291.603C73.0088 291.819 73.3185 292.11 73.5429 292.477C73.7674 292.843 73.8796 293.251 73.8796 293.7C73.8796 294.021 73.8213 294.335 73.7049 294.642C73.5912 294.946 73.3924 295.285 73.1083 295.66C72.827 296.032 72.4364 296.487 71.9364 297.024L69.9762 299.12V299.189H74.033V300.126H68.5273ZM78.8611 291.399V300.126H77.8043V292.507H77.7532L75.6225 293.921V292.848L77.8043 291.399H78.8611ZM81.3711 300.126V299.359L84.2517 296.206C84.5898 295.836 84.8682 295.515 85.087 295.242C85.3057 294.967 85.4677 294.708 85.5728 294.467C85.6807 294.223 85.7347 293.967 85.7347 293.7C85.7347 293.393 85.6608 293.127 85.5131 292.903C85.3682 292.679 85.1694 292.505 84.9165 292.383C84.6637 292.261 84.3796 292.2 84.0642 292.2C83.729 292.2 83.4364 292.269 83.1864 292.409C82.9392 292.545 82.7475 292.737 82.6111 292.984C82.4776 293.231 82.4108 293.521 82.4108 293.853H81.4052C81.4052 293.342 81.523 292.893 81.7588 292.507C81.9946 292.12 82.3157 291.819 82.7219 291.603C83.131 291.387 83.5898 291.279 84.0983 291.279C84.6097 291.279 85.0628 291.387 85.4577 291.603C85.8526 291.819 86.1623 292.11 86.3867 292.477C86.6111 292.843 86.7233 293.251 86.7233 293.7C86.7233 294.021 86.6651 294.335 86.5486 294.642C86.435 294.946 86.2361 295.285 85.952 295.66C85.6708 296.032 85.2802 296.487 84.7802 297.024L82.8199 299.12V299.189H86.8767V300.126H81.3711ZM91.4833 300.245C90.8412 300.245 90.2944 300.071 89.8427 299.721C89.3909 299.369 89.0458 298.859 88.8071 298.191C88.5685 297.521 88.4492 296.711 88.4492 295.762C88.4492 294.819 88.5685 294.014 88.8071 293.346C89.0486 292.676 89.3952 292.164 89.8469 291.812C90.3015 291.457 90.8469 291.279 91.4833 291.279C92.1196 291.279 92.6637 291.457 93.1154 291.812C93.5699 292.164 93.9165 292.676 94.1552 293.346C94.3966 294.014 94.5174 294.819 94.5174 295.762C94.5174 296.711 94.398 297.521 94.1594 298.191C93.9208 298.859 93.5756 299.369 93.1239 299.721C92.6722 300.071 92.1253 300.245 91.4833 300.245ZM91.4833 299.308C92.1196 299.308 92.614 299.001 92.9662 298.387C93.3185 297.774 93.4946 296.899 93.4946 295.762C93.4946 295.007 93.4137 294.363 93.2517 293.832C93.0927 293.301 92.8625 292.896 92.5614 292.617C92.2631 292.339 91.9037 292.2 91.4833 292.2C90.8526 292.2 90.3597 292.511 90.0046 293.133C89.6495 293.752 89.4719 294.629 89.4719 295.762C89.4719 296.518 89.5515 297.16 89.7105 297.689C89.8696 298.217 90.0983 298.619 90.3966 298.894C90.6978 299.17 91.06 299.308 91.4833 299.308Z" fill="#54555A"/>
<path d="M111.197 300.126V299.359L114.078 296.206C114.416 295.836 114.694 295.515 114.913 295.242C115.132 294.967 115.294 294.708 115.399 294.467C115.507 294.223 115.561 293.967 115.561 293.7C115.561 293.393 115.487 293.127 115.339 292.903C115.194 292.679 114.995 292.505 114.742 292.383C114.49 292.261 114.205 292.2 113.89 292.2C113.555 292.2 113.262 292.269 113.012 292.409C112.765 292.545 112.573 292.737 112.437 292.984C112.303 293.231 112.237 293.521 112.237 293.853H111.231C111.231 293.342 111.349 292.893 111.585 292.507C111.821 292.12 112.142 291.819 112.548 291.603C112.957 291.387 113.416 291.279 113.924 291.279C114.436 291.279 114.889 291.387 115.284 291.603C115.678 291.819 115.988 292.11 116.213 292.477C116.437 292.843 116.549 293.251 116.549 293.7C116.549 294.021 116.491 294.335 116.374 294.642C116.261 294.946 116.062 295.285 115.778 295.66C115.497 296.032 115.106 296.487 114.606 297.024L112.646 299.12V299.189H116.703V300.126H111.197ZM121.531 291.399V300.126H120.474V292.507H120.423L118.292 293.921V292.848L120.474 291.399H121.531ZM126.99 300.245C126.427 300.245 125.926 300.149 125.485 299.956C125.048 299.762 124.7 299.494 124.441 299.15C124.186 298.804 124.046 298.402 124.024 297.944H125.097C125.12 298.225 125.217 298.468 125.387 298.673C125.558 298.875 125.781 299.031 126.056 299.142C126.332 299.252 126.637 299.308 126.972 299.308C127.347 299.308 127.68 299.242 127.97 299.112C128.259 298.981 128.487 298.799 128.651 298.566C128.816 298.333 128.899 298.064 128.899 297.757C128.899 297.436 128.819 297.153 128.66 296.909C128.501 296.662 128.268 296.468 127.961 296.329C127.654 296.19 127.279 296.12 126.836 296.12H126.137V295.183H126.836C127.183 295.183 127.487 295.12 127.748 294.995C128.012 294.87 128.218 294.694 128.366 294.467C128.517 294.24 128.592 293.973 128.592 293.666C128.592 293.37 128.526 293.113 128.396 292.894C128.265 292.676 128.08 292.505 127.842 292.383C127.606 292.261 127.328 292.2 127.007 292.2C126.705 292.2 126.421 292.255 126.154 292.366C125.89 292.474 125.674 292.632 125.507 292.839C125.339 293.044 125.248 293.291 125.234 293.581H124.211C124.228 293.123 124.366 292.723 124.624 292.379C124.883 292.032 125.221 291.762 125.639 291.569C126.059 291.376 126.521 291.279 127.024 291.279C127.563 291.279 128.026 291.389 128.413 291.608C128.799 291.823 129.096 292.109 129.303 292.464C129.511 292.819 129.615 293.203 129.615 293.615C129.615 294.106 129.485 294.525 129.227 294.872C128.971 295.218 128.623 295.458 128.183 295.592V295.66C128.734 295.751 129.164 295.985 129.474 296.363C129.784 296.738 129.938 297.203 129.938 297.757C129.938 298.231 129.809 298.657 129.551 299.035C129.295 299.41 128.946 299.706 128.502 299.921C128.059 300.137 127.555 300.245 126.99 300.245ZM134.528 300.245C133.886 300.245 133.339 300.071 132.887 299.721C132.436 299.369 132.09 298.859 131.852 298.191C131.613 297.521 131.494 296.711 131.494 295.762C131.494 294.819 131.613 294.014 131.852 293.346C132.093 292.676 132.44 292.164 132.892 291.812C133.346 291.457 133.892 291.279 134.528 291.279C135.164 291.279 135.708 291.457 136.16 291.812C136.615 292.164 136.961 292.676 137.2 293.346C137.441 294.014 137.562 294.819 137.562 295.762C137.562 296.711 137.443 297.521 137.204 298.191C136.965 298.859 136.62 299.369 136.169 299.721C135.717 300.071 135.17 300.245 134.528 300.245ZM134.528 299.308C135.164 299.308 135.659 299.001 136.011 298.387C136.363 297.774 136.539 296.899 136.539 295.762C136.539 295.007 136.458 294.363 136.296 293.832C136.137 293.301 135.907 292.896 135.606 292.617C135.308 292.339 134.948 292.2 134.528 292.2C133.897 292.2 133.404 292.511 133.049 293.133C132.694 293.752 132.517 294.629 132.517 295.762C132.517 296.518 132.596 297.16 132.755 297.689C132.914 298.217 133.143 298.619 133.441 298.894C133.742 299.17 134.105 299.308 134.528 299.308Z" fill="#54555A"/>
<path d="M154.177 300.126V299.359L157.058 296.206C157.396 295.836 157.674 295.515 157.893 295.242C158.112 294.967 158.274 294.708 158.379 294.467C158.487 294.223 158.541 293.967 158.541 293.7C158.541 293.393 158.467 293.127 158.319 292.903C158.174 292.679 157.975 292.505 157.723 292.383C157.47 292.261 157.186 292.2 156.87 292.2C156.535 292.2 156.242 292.269 155.992 292.409C155.745 292.545 155.554 292.737 155.417 292.984C155.284 293.231 155.217 293.521 155.217 293.853H154.211C154.211 293.342 154.329 292.893 154.565 292.507C154.801 292.12 155.122 291.819 155.528 291.603C155.937 291.387 156.396 291.279 156.904 291.279C157.416 291.279 157.869 291.387 158.264 291.603C158.659 291.819 158.968 292.11 159.193 292.477C159.417 292.843 159.529 293.251 159.529 293.7C159.529 294.021 159.471 294.335 159.355 294.642C159.241 294.946 159.042 295.285 158.758 295.66C158.477 296.032 158.086 296.487 157.586 297.024L155.626 299.12V299.189H159.683V300.126H154.177ZM164.511 291.399V300.126H163.454V292.507H163.403L161.272 293.921V292.848L163.454 291.399H164.511ZM169.816 300.245C169.231 300.245 168.714 300.142 168.265 299.934C167.819 299.724 167.471 299.436 167.221 299.069C166.971 298.7 166.848 298.279 166.85 297.808C166.848 297.439 166.92 297.098 167.068 296.785C167.216 296.47 167.417 296.207 167.673 295.997C167.931 295.784 168.22 295.649 168.538 295.592V295.541C168.12 295.433 167.788 295.198 167.541 294.838C167.294 294.474 167.171 294.061 167.174 293.598C167.171 293.154 167.284 292.758 167.511 292.409C167.738 292.059 168.051 291.784 168.448 291.582C168.849 291.38 169.305 291.279 169.816 291.279C170.322 291.279 170.774 291.38 171.171 291.582C171.569 291.784 171.882 292.059 172.109 292.409C172.339 292.758 172.456 293.154 172.458 293.598C172.456 294.061 172.329 294.474 172.079 294.838C171.832 295.198 171.504 295.433 171.095 295.541V295.592C171.41 295.649 171.694 295.784 171.947 295.997C172.2 296.207 172.402 296.47 172.552 296.785C172.703 297.098 172.779 297.439 172.782 297.808C172.779 298.279 172.652 298.7 172.399 299.069C172.149 299.436 171.801 299.724 171.355 299.934C170.912 300.142 170.399 300.245 169.816 300.245ZM169.816 299.308C170.211 299.308 170.552 299.244 170.839 299.116C171.126 298.988 171.348 298.808 171.504 298.575C171.66 298.342 171.74 298.069 171.742 297.757C171.74 297.427 171.654 297.136 171.487 296.883C171.319 296.63 171.091 296.431 170.801 296.287C170.514 296.142 170.186 296.069 169.816 296.069C169.444 296.069 169.112 296.142 168.819 296.287C168.529 296.431 168.301 296.63 168.133 296.883C167.968 297.136 167.887 297.427 167.89 297.757C167.887 298.069 167.963 298.342 168.116 298.575C168.272 298.808 168.495 298.988 168.785 299.116C169.075 299.244 169.419 299.308 169.816 299.308ZM169.816 295.166C170.129 295.166 170.406 295.103 170.647 294.978C170.892 294.853 171.083 294.679 171.223 294.454C171.362 294.23 171.433 293.967 171.436 293.666C171.433 293.37 171.363 293.113 171.227 292.894C171.091 292.673 170.902 292.502 170.66 292.383C170.419 292.261 170.137 292.2 169.816 292.2C169.49 292.2 169.204 292.261 168.96 292.383C168.716 292.502 168.527 292.673 168.393 292.894C168.26 293.113 168.194 293.37 168.197 293.666C168.194 293.967 168.261 294.23 168.397 294.454C168.537 294.679 168.728 294.853 168.973 294.978C169.217 295.103 169.498 295.166 169.816 295.166ZM177.262 300.245C176.62 300.245 176.073 300.071 175.621 299.721C175.17 299.369 174.825 298.859 174.586 298.191C174.347 297.521 174.228 296.711 174.228 295.762C174.228 294.819 174.347 294.014 174.586 293.346C174.827 292.676 175.174 292.164 175.626 291.812C176.08 291.457 176.626 291.279 177.262 291.279C177.898 291.279 178.442 291.457 178.894 291.812C179.349 292.164 179.695 292.676 179.934 293.346C180.175 294.014 180.296 294.819 180.296 295.762C180.296 296.711 180.177 297.521 179.938 298.191C179.7 298.859 179.354 299.369 178.903 299.721C178.451 300.071 177.904 300.245 177.262 300.245ZM177.262 299.308C177.898 299.308 178.393 299.001 178.745 298.387C179.097 297.774 179.273 296.899 179.273 295.762C179.273 295.007 179.192 294.363 179.03 293.832C178.871 293.301 178.641 292.896 178.34 292.617C178.042 292.339 177.682 292.2 177.262 292.2C176.631 292.2 176.138 292.511 175.783 293.133C175.428 293.752 175.251 294.629 175.251 295.762C175.251 296.518 175.33 297.16 175.489 297.689C175.648 298.217 175.877 298.619 176.175 298.894C176.477 299.17 176.839 299.308 177.262 299.308Z" fill="#54555A"/>
<path d="M199.405 300.245C199.047 300.24 198.689 300.171 198.331 300.041C197.973 299.91 197.646 299.69 197.351 299.38C197.055 299.068 196.818 298.646 196.639 298.115C196.46 297.581 196.371 296.91 196.371 296.103C196.371 295.331 196.443 294.646 196.588 294.049C196.733 293.45 196.943 292.946 197.219 292.537C197.494 292.125 197.827 291.812 198.216 291.599C198.608 291.386 199.05 291.279 199.541 291.279C200.03 291.279 200.464 291.377 200.845 291.573C201.229 291.767 201.541 292.037 201.782 292.383C202.024 292.73 202.18 293.129 202.251 293.581H201.211C201.115 293.189 200.927 292.863 200.649 292.605C200.371 292.346 200.001 292.217 199.541 292.217C198.865 292.217 198.332 292.511 197.943 293.099C197.557 293.687 197.362 294.512 197.359 295.575H197.427C197.586 295.333 197.775 295.127 197.994 294.957C198.216 294.784 198.46 294.65 198.727 294.556C198.994 294.463 199.277 294.416 199.575 294.416C200.075 294.416 200.532 294.541 200.947 294.791C201.362 295.038 201.694 295.38 201.944 295.818C202.194 296.252 202.319 296.751 202.319 297.314C202.319 297.853 202.199 298.348 201.957 298.796C201.716 299.242 201.376 299.598 200.939 299.862C200.504 300.123 199.993 300.251 199.405 300.245ZM199.405 299.308C199.763 299.308 200.084 299.218 200.368 299.039C200.655 298.86 200.881 298.62 201.045 298.319C201.213 298.018 201.297 297.683 201.297 297.314C201.297 296.953 201.216 296.625 201.054 296.329C200.895 296.031 200.675 295.794 200.393 295.617C200.115 295.441 199.797 295.353 199.439 295.353C199.169 295.353 198.917 295.407 198.684 295.515C198.452 295.62 198.247 295.765 198.071 295.95C197.898 296.135 197.761 296.346 197.662 296.585C197.562 296.821 197.513 297.069 197.513 297.331C197.513 297.677 197.594 298.001 197.756 298.302C197.92 298.603 198.145 298.846 198.429 299.031C198.716 299.215 199.041 299.308 199.405 299.308ZM206.842 300.245C206.2 300.245 205.653 300.071 205.201 299.721C204.749 299.369 204.404 298.859 204.166 298.191C203.927 297.521 203.808 296.711 203.808 295.762C203.808 294.819 203.927 294.014 204.166 293.346C204.407 292.676 204.754 292.164 205.205 291.812C205.66 291.457 206.205 291.279 206.842 291.279C207.478 291.279 208.022 291.457 208.474 291.812C208.928 292.164 209.275 292.676 209.514 293.346C209.755 294.014 209.876 294.819 209.876 295.762C209.876 296.711 209.757 297.521 209.518 298.191C209.279 298.859 208.934 299.369 208.482 299.721C208.031 300.071 207.484 300.245 206.842 300.245ZM206.842 299.308C207.478 299.308 207.972 299.001 208.325 298.387C208.677 297.774 208.853 296.899 208.853 295.762C208.853 295.007 208.772 294.363 208.61 293.832C208.451 293.301 208.221 292.896 207.92 292.617C207.622 292.339 207.262 292.2 206.842 292.2C206.211 292.2 205.718 292.511 205.363 293.133C205.008 293.752 204.83 294.629 204.83 295.762C204.83 296.518 204.91 297.16 205.069 297.689C205.228 298.217 205.457 298.619 205.755 298.894C206.056 299.17 206.419 299.308 206.842 299.308ZM211.534 300.126L215.437 292.404V292.336H210.937V291.399H216.528V292.387L212.642 300.126H211.534ZM220.726 300.245C220.226 300.245 219.776 300.146 219.376 299.947C218.975 299.748 218.654 299.475 218.412 299.129C218.171 298.782 218.039 298.387 218.016 297.944H219.039C219.079 298.339 219.258 298.666 219.576 298.924C219.897 299.18 220.28 299.308 220.726 299.308C221.084 299.308 221.403 299.224 221.681 299.056C221.962 298.889 222.182 298.659 222.341 298.366C222.503 298.071 222.584 297.737 222.584 297.365C222.584 296.984 222.501 296.644 222.333 296.346C222.168 296.045 221.941 295.808 221.651 295.635C221.361 295.461 221.03 295.373 220.658 295.37C220.391 295.367 220.117 295.409 219.836 295.494C219.555 295.576 219.323 295.683 219.141 295.814L218.153 295.694L218.681 291.399H223.215V292.336H219.567L219.26 294.91H219.312C219.491 294.768 219.715 294.65 219.985 294.556C220.255 294.463 220.536 294.416 220.829 294.416C221.363 294.416 221.839 294.544 222.256 294.799C222.677 295.052 223.006 295.399 223.245 295.839C223.486 296.279 223.607 296.782 223.607 297.348C223.607 297.904 223.482 298.402 223.232 298.839C222.985 299.274 222.644 299.617 222.209 299.87C221.775 300.12 221.28 300.245 220.726 300.245Z" fill="#54555A"/>
<path d="M239.739 300.126V299.359L242.62 296.206C242.958 295.836 243.236 295.515 243.455 295.242C243.674 294.967 243.836 294.708 243.941 294.467C244.049 294.223 244.103 293.967 244.103 293.7C244.103 293.393 244.029 293.127 243.881 292.903C243.736 292.679 243.537 292.505 243.284 292.383C243.032 292.261 242.748 292.2 242.432 292.2C242.097 292.2 241.804 292.269 241.554 292.409C241.307 292.545 241.115 292.737 240.979 292.984C240.846 293.231 240.779 293.521 240.779 293.853H239.773C239.773 293.342 239.891 292.893 240.127 292.507C240.363 292.12 240.684 291.819 241.09 291.603C241.499 291.387 241.958 291.279 242.466 291.279C242.978 291.279 243.431 291.387 243.826 291.603C244.221 291.819 244.53 292.11 244.755 292.477C244.979 292.843 245.091 293.251 245.091 293.7C245.091 294.021 245.033 294.335 244.917 294.642C244.803 294.946 244.604 295.285 244.32 295.66C244.039 296.032 243.648 296.487 243.148 297.024L241.188 299.12V299.189H245.245V300.126H239.739ZM250.073 291.399V300.126H249.016V292.507H248.965L246.834 293.921V292.848L249.016 291.399H250.073ZM252.378 298.336V297.467L256.213 291.399H256.844V292.745H256.418L253.52 297.331V297.399H258.685V298.336H252.378ZM256.486 300.126V298.072V297.667V291.399H257.492V300.126H256.486ZM263.129 300.245C262.487 300.245 261.94 300.071 261.488 299.721C261.036 299.369 260.691 298.859 260.452 298.191C260.214 297.521 260.095 296.711 260.095 295.762C260.095 294.819 260.214 294.014 260.452 293.346C260.694 292.676 261.041 292.164 261.492 291.812C261.947 291.457 262.492 291.279 263.129 291.279C263.765 291.279 264.309 291.457 264.761 291.812C265.215 292.164 265.562 292.676 265.8 293.346C266.042 294.014 266.163 294.819 266.163 295.762C266.163 296.711 266.043 297.521 265.805 298.191C265.566 298.859 265.221 299.369 264.769 299.721C264.318 300.071 263.771 300.245 263.129 300.245ZM263.129 299.308C263.765 299.308 264.259 299.001 264.612 298.387C264.964 297.774 265.14 296.899 265.14 295.762C265.14 295.007 265.059 294.363 264.897 293.832C264.738 293.301 264.508 292.896 264.207 292.617C263.908 292.339 263.549 292.2 263.129 292.2C262.498 292.2 262.005 292.511 261.65 293.133C261.295 293.752 261.117 294.629 261.117 295.762C261.117 296.518 261.197 297.16 261.356 297.689C261.515 298.217 261.744 298.619 262.042 298.894C262.343 299.17 262.705 299.308 263.129 299.308Z" fill="#54555A"/>
<path d="M283.112 300.126V299.359L285.993 296.206C286.331 295.836 286.609 295.515 286.828 295.242C287.047 294.967 287.208 294.708 287.314 294.467C287.422 294.223 287.475 293.967 287.475 293.7C287.475 293.393 287.402 293.127 287.254 292.903C287.109 292.679 286.91 292.505 286.657 292.383C286.404 292.261 286.12 292.2 285.805 292.2C285.47 292.2 285.177 292.269 284.927 292.409C284.68 292.545 284.488 292.737 284.352 292.984C284.218 293.231 284.152 293.521 284.152 293.853H283.146C283.146 293.342 283.264 292.893 283.5 292.507C283.735 292.12 284.056 291.819 284.463 291.603C284.872 291.387 285.331 291.279 285.839 291.279C286.35 291.279 286.804 291.387 287.198 291.603C287.593 291.819 287.903 292.11 288.127 292.477C288.352 292.843 288.464 293.251 288.464 293.7C288.464 294.021 288.406 294.335 288.289 294.642C288.176 294.946 287.977 295.285 287.693 295.66C287.412 296.032 287.021 296.487 286.521 297.024L284.561 299.12V299.189H288.618V300.126H283.112ZM293.446 291.399V300.126H292.389V292.507H292.338L290.207 293.921V292.848L292.389 291.399H293.446ZM296.228 300.126L300.132 292.404V292.336H295.632V291.399H301.223V292.387L297.336 300.126H296.228ZM305.47 300.245C304.828 300.245 304.281 300.071 303.83 299.721C303.378 299.369 303.033 298.859 302.794 298.191C302.555 297.521 302.436 296.711 302.436 295.762C302.436 294.819 302.555 294.014 302.794 293.346C303.035 292.676 303.382 292.164 303.834 291.812C304.288 291.457 304.834 291.279 305.47 291.279C306.107 291.279 306.651 291.457 307.102 291.812C307.557 292.164 307.903 292.676 308.142 293.346C308.384 294.014 308.504 294.819 308.504 295.762C308.504 296.711 308.385 297.521 308.146 298.191C307.908 298.859 307.562 299.369 307.111 299.721C306.659 300.071 306.112 300.245 305.47 300.245ZM305.47 299.308C306.107 299.308 306.601 299.001 306.953 298.387C307.305 297.774 307.482 296.899 307.482 295.762C307.482 295.007 307.401 294.363 307.239 293.832C307.08 293.301 306.849 292.896 306.548 292.617C306.25 292.339 305.891 292.2 305.47 292.2C304.839 292.2 304.347 292.511 303.991 293.133C303.636 293.752 303.459 294.629 303.459 295.762C303.459 296.518 303.538 297.16 303.697 297.689C303.857 298.217 304.085 298.619 304.384 298.894C304.685 299.17 305.047 299.308 305.47 299.308Z" fill="#54555A"/>
<path d="M324.071 298.336V297.467L327.906 291.399H328.537V292.745H328.111L325.213 297.331V297.399H330.378V298.336H324.071ZM328.179 300.126V298.072V297.667V291.399H329.185V300.126H328.179ZM334.821 300.245C334.179 300.245 333.632 300.071 333.181 299.721C332.729 299.369 332.384 298.859 332.145 298.191C331.907 297.521 331.787 296.711 331.787 295.762C331.787 294.819 331.907 294.014 332.145 293.346C332.387 292.676 332.733 292.164 333.185 291.812C333.64 291.457 334.185 291.279 334.821 291.279C335.458 291.279 336.002 291.457 336.454 291.812C336.908 292.164 337.255 292.676 337.493 293.346C337.735 294.014 337.856 294.819 337.856 295.762C337.856 296.711 337.736 297.521 337.498 298.191C337.259 298.859 336.914 299.369 336.462 299.721C336.01 300.071 335.463 300.245 334.821 300.245ZM334.821 299.308C335.458 299.308 335.952 299.001 336.304 298.387C336.657 297.774 336.833 296.899 336.833 295.762C336.833 295.007 336.752 294.363 336.59 293.832C336.431 293.301 336.201 292.896 335.9 292.617C335.601 292.339 335.242 292.2 334.821 292.2C334.191 292.2 333.698 292.511 333.343 293.133C332.988 293.752 332.81 294.629 332.81 295.762C332.81 296.518 332.89 297.16 333.049 297.689C333.208 298.217 333.436 298.619 333.735 298.894C334.036 299.17 334.398 299.308 334.821 299.308ZM339.27 298.336V297.467L343.106 291.399H343.736V292.745H343.31L340.412 297.331V297.399H345.577V298.336H339.27ZM343.378 300.126V298.072V297.667V291.399H344.384V300.126H343.378ZM350.021 300.245C349.379 300.245 348.832 300.071 348.38 299.721C347.928 299.369 347.583 298.859 347.344 298.191C347.106 297.521 346.987 296.711 346.987 295.762C346.987 294.819 347.106 294.014 347.344 293.346C347.586 292.676 347.933 292.164 348.384 291.812C348.839 291.457 349.384 291.279 350.021 291.279C350.657 291.279 351.201 291.457 351.653 291.812C352.107 292.164 352.454 292.676 352.693 293.346C352.934 294.014 353.055 294.819 353.055 295.762C353.055 296.711 352.935 297.521 352.697 298.191C352.458 298.859 352.113 299.369 351.661 299.721C351.21 300.071 350.663 300.245 350.021 300.245ZM350.021 299.308C350.657 299.308 351.151 299.001 351.504 298.387C351.856 297.774 352.032 296.899 352.032 295.762C352.032 295.007 351.951 294.363 351.789 293.832C351.63 293.301 351.4 292.896 351.099 292.617C350.8 292.339 350.441 292.2 350.021 292.2C349.39 292.2 348.897 292.511 348.542 293.133C348.187 293.752 348.009 294.629 348.009 295.762C348.009 296.518 348.089 297.16 348.248 297.689C348.407 298.217 348.636 298.619 348.934 298.894C349.235 299.17 349.597 299.308 350.021 299.308Z" fill="#54555A"/>
<path d="M81.4286 101.933C85.35 101.933 89.1108 103.491 91.8837 106.264C94.6565 109.037 96.2143 112.798 96.2143 116.719V266.214C96.2143 270.136 94.6565 273.897 91.8837 276.669C89.1108 279.442 85.35 281 81.4286 281C77.5072 281 73.7464 279.442 70.9735 276.669C68.2007 273.897 66.6429 270.136 66.6429 266.214V116.719C66.6429 112.798 68.2007 109.037 70.9735 106.264C73.7464 103.491 77.5072 101.933 81.4286 101.933Z" fill="#2000D6"/>
<path d="M124.286 128C128.207 128 131.968 129.558 134.741 132.331C137.514 135.103 139.071 138.864 139.071 142.786V266.214C139.071 270.136 137.514 273.897 134.741 276.669C131.968 279.442 128.207 281 124.286 281C120.364 281 116.603 279.442 113.831 276.669C111.058 273.897 109.5 270.136 109.5 266.214V142.786C109.5 138.864 111.058 135.103 113.831 132.331C116.603 129.558 120.364 128 124.286 128Z" fill="#FF928A"/>
<path d="M167.143 161.433C171.064 161.433 174.825 162.991 177.598 165.764C180.371 168.537 181.929 172.298 181.929 176.219V266.214C181.929 270.136 180.371 273.897 177.598 276.669C174.825 279.442 171.064 281 167.143 281C165.201 281 163.279 280.618 161.485 279.875C159.691 279.131 158.061 278.042 156.688 276.669C155.315 275.296 154.226 273.666 153.483 271.873C152.74 270.079 152.357 268.156 152.357 266.214V176.219C152.357 174.277 152.74 172.355 153.483 170.561C154.226 168.767 155.315 167.137 156.688 165.764C158.061 164.391 159.691 163.302 161.485 162.559C163.279 161.816 165.201 161.433 167.143 161.433Z" fill="#3CC3DF"/>
<path d="M210 179C213.921 179 217.682 180.558 220.455 183.331C223.228 186.103 224.786 189.864 224.786 193.786V266.214C224.786 270.136 223.228 273.897 220.455 276.669C217.682 279.442 213.921 281 210 281C206.079 281 202.318 279.442 199.545 276.669C196.772 273.897 195.214 270.136 195.214 266.214V193.786C195.214 189.864 196.772 186.103 199.545 183.331C202.318 180.558 206.079 179 210 179Z" fill="#FFAE4C"/>
<path d="M252.857 235.667C254.799 235.667 256.722 236.049 258.515 236.792C260.309 237.535 261.939 238.624 263.312 239.997C264.685 241.37 265.774 243 266.517 244.794C267.26 246.588 267.643 248.511 267.643 250.452V266.214C267.643 268.156 267.26 270.079 266.517 271.873C265.774 273.666 264.685 275.296 263.312 276.669C261.939 278.042 260.309 279.131 258.515 279.875C256.722 280.618 254.799 281 252.857 281C248.936 281 245.175 279.442 242.402 276.669C239.629 273.897 238.071 270.136 238.071 266.214V250.452C238.071 246.531 239.629 242.77 242.402 239.997C245.175 237.224 248.936 235.667 252.857 235.667Z" fill="#537FF1"/>
<path d="M295.714 237.933C297.656 237.933 299.579 238.316 301.373 239.059C303.166 239.802 304.796 240.891 306.169 242.264C307.542 243.637 308.631 245.267 309.375 247.061C310.118 248.855 310.5 250.777 310.5 252.719V266.214C310.5 268.156 310.118 270.079 309.375 271.873C308.631 273.666 307.542 275.296 306.169 276.669C304.796 278.042 303.166 279.131 301.373 279.875C299.579 280.618 297.656 281 295.714 281C291.793 281 288.032 279.442 285.259 276.669C282.486 273.897 280.929 270.136 280.929 266.214V252.719C280.929 248.798 282.486 245.037 285.259 242.264C288.032 239.491 291.793 237.933 295.714 237.933Z" fill="#6FD195"/>
<path d="M334.552 259.467H342.591C345.446 259.467 348.184 260.601 350.204 262.62C352.223 264.639 353.357 267.378 353.357 270.233C353.357 273.089 352.223 275.827 350.204 277.846C348.185 279.866 345.446 281 342.591 281H334.552C331.697 281 328.958 279.866 326.939 277.847C324.92 275.827 323.786 273.089 323.786 270.233C323.786 267.378 324.92 264.639 326.939 262.62C328.958 260.601 331.697 259.467 334.552 259.467Z" fill="#8C63DA"/>
<path d="M61.3721 50.2767H59.1278V43.0039H61.4715C62.177 43.0039 62.7807 43.1495 63.2826 43.4407C63.7845 43.7296 64.1692 44.145 64.4367 44.6872C64.7042 45.227 64.838 45.8733 64.838 46.6261C64.838 47.3837 64.703 48.0359 64.4332 48.5828C64.1633 49.1273 63.7703 49.5463 63.2542 49.8399C62.7381 50.1311 62.1107 50.2767 61.3721 50.2767ZM60.0084 49.4954H61.3153C61.9166 49.4954 62.4149 49.3794 62.8103 49.1474C63.2056 48.9154 63.5004 48.5851 63.6945 48.1566C63.8886 47.7281 63.9857 47.218 63.9857 46.6261C63.9857 46.039 63.8898 45.5335 63.6981 45.1098C63.5063 44.6836 63.2198 44.3569 62.8387 44.1297C62.4575 43.9 61.9829 43.7852 61.4147 43.7852H60.0084V49.4954ZM66.2016 50.2767V44.8221H67.0397V50.2767H66.2016ZM66.6278 43.913C66.4644 43.913 66.3235 43.8574 66.2052 43.7461C66.0892 43.6349 66.0312 43.5011 66.0312 43.3449C66.0312 43.1886 66.0892 43.0548 66.2052 42.9436C66.3235 42.8323 66.4644 42.7767 66.6278 42.7767C66.7911 42.7767 66.9308 42.8323 67.0468 42.9436C67.1652 43.0548 67.2243 43.1886 67.2243 43.3449C67.2243 43.5011 67.1652 43.6349 67.0468 43.7461C66.9308 43.8574 66.7911 43.913 66.6278 43.913ZM72.4383 46.0437L71.6855 46.2568C71.6381 46.1313 71.5683 46.0094 71.4759 45.891C71.386 45.7703 71.2629 45.6708 71.1066 45.5927C70.9504 45.5146 70.7503 45.4755 70.5065 45.4755C70.1727 45.4755 69.8945 45.5525 69.672 45.7064C69.4518 45.8579 69.3417 46.0508 69.3417 46.2852C69.3417 46.4935 69.4175 46.6581 69.569 46.7788C69.7205 46.8995 69.9572 47.0002 70.2792 47.0806L71.0889 47.2795C71.5766 47.3979 71.94 47.579 72.1791 47.8228C72.4182 48.0643 72.5377 48.3756 72.5377 48.7568C72.5377 49.0693 72.4478 49.3486 72.2678 49.5949C72.0903 49.8411 71.8417 50.0352 71.5221 50.1772C71.2025 50.3193 70.8308 50.3903 70.407 50.3903C69.8507 50.3903 69.3902 50.2696 69.0257 50.0281C68.6611 49.7866 68.4302 49.4339 68.3332 48.9699L69.1286 48.771C69.2044 49.0645 69.3476 49.2847 69.5583 49.4315C69.7714 49.5783 70.0496 49.6517 70.3928 49.6517C70.7835 49.6517 71.0936 49.5688 71.3232 49.4031C71.5552 49.235 71.6713 49.0338 71.6713 48.7994C71.6713 48.61 71.605 48.4514 71.4724 48.3235C71.3398 48.1933 71.1362 48.0963 70.8616 48.0324L69.9525 47.8193C69.453 47.7009 69.086 47.5174 68.8517 47.2689C68.6196 47.0179 68.5036 46.7042 68.5036 46.3278C68.5036 46.02 68.5901 45.7478 68.7629 45.511C68.9381 45.2743 69.176 45.0885 69.4767 44.9535C69.7797 44.8186 70.123 44.7511 70.5065 44.7511C71.0463 44.7511 71.47 44.8695 71.7778 45.1062C72.0879 45.343 72.3081 45.6555 72.4383 46.0437ZM76.1714 44.8221V45.5324H73.3447V44.8221H76.1714ZM74.1686 43.5153H75.0067V48.7142C75.0067 48.9509 75.041 49.1285 75.1096 49.2468C75.1807 49.3628 75.2706 49.441 75.3795 49.4812C75.4908 49.5191 75.608 49.538 75.7311 49.538C75.8234 49.538 75.8992 49.5333 75.9584 49.5238C76.0175 49.512 76.0649 49.5025 76.1004 49.4954L76.2709 50.2483C76.214 50.2696 76.1347 50.2909 76.0329 50.3122C75.9311 50.3359 75.8021 50.3477 75.6459 50.3477C75.4091 50.3477 75.1771 50.2968 74.9498 50.195C74.7249 50.0932 74.5379 49.9381 74.3888 49.7298C74.242 49.5215 74.1686 49.2587 74.1686 48.9414V43.5153ZM77.4321 50.2767V44.8221H78.2417V45.646H78.2986C78.398 45.3761 78.5779 45.1571 78.8383 44.989C79.0988 44.8209 79.3923 44.7369 79.719 44.7369C79.7806 44.7369 79.8575 44.7381 79.9498 44.7404C80.0422 44.7428 80.112 44.7464 80.1594 44.7511V45.6034C80.1309 45.5963 80.0658 45.5856 79.964 45.5714C79.8646 45.5548 79.7593 45.5466 79.648 45.5466C79.3828 45.5466 79.1461 45.6022 78.9378 45.7135C78.7318 45.8224 78.5684 45.9739 78.4477 46.168C78.3293 46.3598 78.2702 46.5788 78.2702 46.825V50.2767H77.4321ZM81.1528 50.2767V44.8221H81.9909V50.2767H81.1528ZM81.5789 43.913C81.4156 43.913 81.2747 43.8574 81.1563 43.7461C81.0403 43.6349 80.9823 43.5011 80.9823 43.3449C80.9823 43.1886 81.0403 43.0548 81.1563 42.9436C81.2747 42.8323 81.4156 42.7767 81.5789 42.7767C81.7423 42.7767 81.882 42.8323 81.998 42.9436C82.1163 43.0548 82.1755 43.1886 82.1755 43.3449C82.1755 43.5011 82.1163 43.6349 81.998 43.7461C81.882 43.8574 81.7423 43.913 81.5789 43.913ZM83.6395 50.2767V43.0039H84.4775V45.6886H84.5486C84.6101 45.5939 84.6953 45.4732 84.8042 45.3264C84.9155 45.1772 85.0741 45.0447 85.2801 44.9287C85.4884 44.8103 85.7702 44.7511 86.1253 44.7511C86.5845 44.7511 86.9894 44.8659 87.3398 45.0956C87.6901 45.3252 87.9636 45.6507 88.1601 46.0721C88.3566 46.4935 88.4548 46.9907 88.4548 47.5636C88.4548 48.1413 88.3566 48.642 88.1601 49.0657C87.9636 49.4871 87.6913 49.8138 87.3433 50.0458C86.9953 50.2755 86.594 50.3903 86.1395 50.3903C85.7891 50.3903 85.5086 50.3323 85.2979 50.2163C85.0872 50.0979 84.925 49.9642 84.8113 49.815C84.6977 49.6635 84.6101 49.538 84.5486 49.4386H84.4491V50.2767H83.6395ZM84.4633 47.5494C84.4633 47.9613 84.5237 48.3247 84.6444 48.6396C84.7652 48.9521 84.9416 49.1971 85.1736 49.3747C85.4056 49.5499 85.6897 49.6375 86.0258 49.6375C86.3762 49.6375 86.6686 49.5451 86.903 49.3605C87.1397 49.1734 87.3173 48.9225 87.4356 48.6076C87.5564 48.2904 87.6167 47.9377 87.6167 47.5494C87.6167 47.1659 87.5576 46.8202 87.4392 46.5125C87.3232 46.2023 87.1468 45.9573 86.9101 45.7774C86.6757 45.5951 86.3809 45.5039 86.0258 45.5039C85.6849 45.5039 85.3985 45.5904 85.1665 45.7632C84.9345 45.9336 84.7593 46.1727 84.6409 46.4805C84.5225 46.7859 84.4633 47.1422 84.4633 47.5494ZM93.1743 48.0466V44.8221H94.0123V50.2767H93.1743V49.3534H93.1175C92.9896 49.6304 92.7907 49.8659 92.5209 50.06C92.251 50.2518 91.9101 50.3477 91.4981 50.3477C91.1572 50.3477 90.8542 50.2731 90.589 50.124C90.3239 49.9725 90.1156 49.7452 89.964 49.4422C89.8125 49.1368 89.7368 48.752 89.7368 48.288V44.8221H90.5748V48.2312C90.5748 48.6289 90.6861 48.9462 90.9086 49.1829C91.1336 49.4197 91.42 49.538 91.768 49.538C91.9764 49.538 92.1882 49.4848 92.4037 49.3782C92.6215 49.2717 92.8038 49.1083 92.9506 48.8882C93.0997 48.668 93.1743 48.3875 93.1743 48.0466ZM97.7632 50.3903C97.2519 50.3903 96.8115 50.2696 96.4422 50.0281C96.0729 49.7866 95.7888 49.454 95.5899 49.0302C95.3911 48.6065 95.2916 48.1223 95.2916 47.5778C95.2916 47.0238 95.3934 46.535 95.597 46.1112C95.803 45.685 96.0895 45.3524 96.4564 45.1133C96.8257 44.8718 97.2566 44.7511 97.749 44.7511C98.1325 44.7511 98.4782 44.8221 98.786 44.9642C99.0937 45.1062 99.3459 45.3051 99.5423 45.5608C99.7388 45.8164 99.8608 46.1147 99.9081 46.4556H99.07C99.0061 46.2071 98.8641 45.9869 98.6439 45.7951C98.4261 45.601 98.1325 45.5039 97.7632 45.5039C97.4365 45.5039 97.1501 45.5892 96.9039 45.7596C96.66 45.9277 96.4694 46.1656 96.3321 46.4734C96.1972 46.7788 96.1297 47.1375 96.1297 47.5494C96.1297 47.9708 96.196 48.3377 96.3286 48.6502C96.4635 48.9627 96.6529 49.2054 96.8968 49.3782C97.143 49.5511 97.4318 49.6375 97.7632 49.6375C97.981 49.6375 98.1787 49.5996 98.3563 49.5238C98.5338 49.4481 98.6842 49.3392 98.8073 49.1971C98.9304 49.0551 99.018 48.8846 99.07 48.6858H99.9081C99.8608 49.0077 99.7436 49.2977 99.5566 49.5558C99.3719 49.8115 99.1269 50.0151 98.8215 50.1666C98.5184 50.3157 98.1657 50.3903 97.7632 50.3903ZM101.133 50.2767V44.8221H101.971V50.2767H101.133ZM101.559 43.913C101.396 43.913 101.255 43.8574 101.137 43.7461C101.021 43.6349 100.963 43.5011 100.963 43.3449C100.963 43.1886 101.021 43.0548 101.137 42.9436C101.255 42.8323 101.396 42.7767 101.559 42.7767C101.723 42.7767 101.862 42.8323 101.978 42.9436C102.097 43.0548 102.156 43.1886 102.156 43.3449C102.156 43.5011 102.097 43.6349 101.978 43.7461C101.862 43.8574 101.723 43.913 101.559 43.913ZM105.722 50.3903C105.23 50.3903 104.798 50.2731 104.426 50.0387C104.057 49.8044 103.768 49.4765 103.56 49.0551C103.354 48.6337 103.251 48.1413 103.251 47.5778C103.251 47.0096 103.354 46.5136 103.56 46.0899C103.768 45.6661 104.057 45.337 104.426 45.1027C104.798 44.8683 105.23 44.7511 105.722 44.7511C106.215 44.7511 106.646 44.8683 107.015 45.1027C107.387 45.337 107.675 45.6661 107.881 46.0899C108.09 46.5136 108.194 47.0096 108.194 47.5778C108.194 48.1413 108.09 48.6337 107.881 49.0551C107.675 49.4765 107.387 49.8044 107.015 50.0387C106.646 50.2731 106.215 50.3903 105.722 50.3903ZM105.722 49.6375C106.096 49.6375 106.404 49.5416 106.646 49.3498C106.887 49.1581 107.066 48.9059 107.182 48.5934C107.298 48.2809 107.356 47.9424 107.356 47.5778C107.356 47.2132 107.298 46.8735 107.182 46.5586C107.066 46.2438 106.887 45.9893 106.646 45.7951C106.404 45.601 106.096 45.5039 105.722 45.5039C105.348 45.5039 105.04 45.601 104.799 45.7951C104.557 45.9893 104.379 46.2438 104.263 46.5586C104.147 46.8735 104.089 47.2132 104.089 47.5778C104.089 47.9424 104.147 48.2809 104.263 48.5934C104.379 48.9059 104.557 49.1581 104.799 49.3498C105.04 49.5416 105.348 49.6375 105.722 49.6375ZM105.339 44.0835L106.205 42.4358H107.185L106.077 44.0835H105.339ZM110.311 46.9954V50.2767H109.473V44.8221H110.283V45.6744H110.354C110.482 45.3974 110.676 45.1749 110.936 45.0068C111.197 44.8363 111.533 44.7511 111.945 44.7511C112.314 44.7511 112.637 44.8269 112.914 44.9784C113.191 45.1275 113.407 45.3548 113.56 45.6602C113.714 45.9632 113.791 46.3467 113.791 46.8108V50.2767H112.953V46.8676C112.953 46.4391 112.842 46.1053 112.619 45.8662C112.397 45.6247 112.091 45.5039 111.703 45.5039C111.436 45.5039 111.197 45.5619 110.986 45.6779C110.778 45.794 110.613 45.9632 110.492 46.1858C110.372 46.4083 110.311 46.6782 110.311 46.9954ZM120.195 50.3903C119.74 50.3903 119.339 50.2755 118.991 50.0458C118.643 49.8138 118.371 49.4871 118.174 49.0657C117.978 48.642 117.88 48.1413 117.88 47.5636C117.88 46.9907 117.978 46.4935 118.174 46.0721C118.371 45.6507 118.644 45.3252 118.995 45.0956C119.345 44.8659 119.75 44.7511 120.209 44.7511C120.564 44.7511 120.845 44.8103 121.051 44.9287C121.259 45.0447 121.418 45.1772 121.527 45.3264C121.638 45.4732 121.724 45.5939 121.786 45.6886H121.857V43.0039H122.695V50.2767H121.885V49.4386H121.786C121.724 49.538 121.637 49.6635 121.523 49.815C121.409 49.9642 121.247 50.0979 121.036 50.2163C120.826 50.3323 120.545 50.3903 120.195 50.3903ZM120.309 49.6375C120.645 49.6375 120.929 49.5499 121.161 49.3747C121.393 49.1971 121.569 48.9521 121.69 48.6396C121.811 48.3247 121.871 47.9613 121.871 47.5494C121.871 47.1422 121.812 46.7859 121.693 46.4805C121.575 46.1727 121.4 45.9336 121.168 45.7632C120.936 45.5904 120.649 45.5039 120.309 45.5039C119.953 45.5039 119.657 45.5951 119.421 45.7774C119.186 45.9573 119.01 46.2023 118.892 46.5125C118.776 46.8202 118.718 47.1659 118.718 47.5494C118.718 47.9377 118.777 48.2904 118.895 48.6076C119.016 48.9225 119.193 49.1734 119.428 49.3605C119.665 49.5451 119.958 49.6375 120.309 49.6375ZM126.633 50.3903C126.108 50.3903 125.654 50.2743 125.273 50.0423C124.894 49.8079 124.602 49.4812 124.396 49.0622C124.192 48.6408 124.09 48.1507 124.09 47.592C124.09 47.0333 124.192 46.5409 124.396 46.1147C124.602 45.6862 124.888 45.3524 125.255 45.1133C125.625 44.8718 126.055 44.7511 126.548 44.7511C126.832 44.7511 127.112 44.7984 127.389 44.8931C127.666 44.9878 127.919 45.1417 128.146 45.3548C128.373 45.5655 128.554 45.8449 128.689 46.1929C128.824 46.5409 128.892 46.9694 128.892 47.4784V47.8335H124.687V47.1091H128.039C128.039 46.8013 127.978 46.5267 127.855 46.2852C127.734 46.0437 127.561 45.8531 127.336 45.7135C127.114 45.5738 126.851 45.5039 126.548 45.5039C126.214 45.5039 125.925 45.5868 125.681 45.7525C125.44 45.9159 125.254 46.1289 125.124 46.3917C124.994 46.6545 124.929 46.9362 124.929 47.2369V47.7199C124.929 48.1318 125 48.481 125.142 48.7674C125.286 49.0515 125.486 49.2681 125.742 49.4173C125.997 49.5641 126.295 49.6375 126.633 49.6375C126.853 49.6375 127.052 49.6067 127.23 49.5451C127.41 49.4812 127.565 49.3865 127.695 49.261C127.825 49.1332 127.926 48.9746 127.997 48.7852L128.806 49.0125C128.721 49.2871 128.578 49.5286 128.377 49.7369C128.175 49.9429 127.927 50.1038 127.631 50.2199C127.335 50.3335 127.002 50.3903 126.633 50.3903ZM135.351 44.8221V45.5324H132.524V44.8221H135.351ZM133.348 43.5153H134.186V48.7142C134.186 48.9509 134.221 49.1285 134.289 49.2468C134.36 49.3628 134.45 49.441 134.559 49.4812C134.67 49.5191 134.788 49.538 134.911 49.538C135.003 49.538 135.079 49.5333 135.138 49.5238C135.197 49.512 135.245 49.5025 135.28 49.4954L135.451 50.2483C135.394 50.2696 135.314 50.2909 135.213 50.3122C135.111 50.3359 134.982 50.3477 134.826 50.3477C134.589 50.3477 134.357 50.2968 134.13 50.195C133.905 50.0932 133.718 49.9381 133.568 49.7298C133.422 49.5215 133.348 49.2587 133.348 48.9414V43.5153ZM136.612 50.2767V44.8221H137.45V50.2767H136.612ZM137.038 43.913C136.875 43.913 136.734 43.8574 136.615 43.7461C136.499 43.6349 136.441 43.5011 136.441 43.3449C136.441 43.1886 136.499 43.0548 136.615 42.9436C136.734 42.8323 136.875 42.7767 137.038 42.7767C137.201 42.7767 137.341 42.8323 137.457 42.9436C137.575 43.0548 137.634 43.1886 137.634 43.3449C137.634 43.5011 137.575 43.6349 137.457 43.7461C137.341 43.8574 137.201 43.913 137.038 43.913ZM141.272 50.3903C140.746 50.3903 140.293 50.2743 139.912 50.0423C139.533 49.8079 139.241 49.4812 139.035 49.0622C138.831 48.6408 138.729 48.1507 138.729 47.592C138.729 47.0333 138.831 46.5409 139.035 46.1147C139.241 45.6862 139.527 45.3524 139.894 45.1133C140.263 44.8718 140.694 44.7511 141.187 44.7511C141.471 44.7511 141.751 44.7984 142.028 44.8931C142.305 44.9878 142.557 45.1417 142.785 45.3548C143.012 45.5655 143.193 45.8449 143.328 46.1929C143.463 46.5409 143.53 46.9694 143.53 47.4784V47.8335H139.326V47.1091H142.678C142.678 46.8013 142.616 46.5267 142.493 46.2852C142.373 46.0437 142.2 45.8531 141.975 45.7135C141.752 45.5738 141.49 45.5039 141.187 45.5039C140.853 45.5039 140.564 45.5868 140.32 45.7525C140.079 45.9159 139.893 46.1289 139.763 46.3917C139.632 46.6545 139.567 46.9362 139.567 47.2369V47.7199C139.567 48.1318 139.638 48.481 139.78 48.7674C139.925 49.0515 140.125 49.2681 140.38 49.4173C140.636 49.5641 140.933 49.6375 141.272 49.6375C141.492 49.6375 141.691 49.6067 141.868 49.5451C142.048 49.4812 142.203 49.3865 142.334 49.261C142.464 49.1332 142.564 48.9746 142.635 48.7852L143.445 49.0125C143.36 49.2871 143.217 49.5286 143.015 49.7369C142.814 49.9429 142.566 50.1038 142.27 50.2199C141.974 50.3335 141.641 50.3903 141.272 50.3903ZM144.805 50.2767V44.8221H145.615V45.6744H145.686C145.799 45.3832 145.983 45.1571 146.236 44.9961C146.49 44.8328 146.794 44.7511 147.149 44.7511C147.509 44.7511 147.808 44.8328 148.047 44.9961C148.289 45.1571 148.477 45.3832 148.612 45.6744H148.669C148.808 45.3927 149.018 45.169 149.297 45.0032C149.577 44.8351 149.912 44.7511 150.302 44.7511C150.79 44.7511 151.189 44.9038 151.499 45.2092C151.809 45.5122 151.964 45.9845 151.964 46.6261V50.2767H151.126V46.6261C151.126 46.2236 151.016 45.936 150.796 45.7632C150.576 45.5904 150.316 45.5039 150.018 45.5039C149.635 45.5039 149.338 45.6199 149.127 45.852C148.916 46.0816 148.811 46.3728 148.811 46.7255V50.2767H147.959V46.5409C147.959 46.2307 147.858 45.981 147.657 45.7916C147.455 45.5998 147.196 45.5039 146.879 45.5039C146.661 45.5039 146.458 45.5619 146.268 45.6779C146.081 45.794 145.93 45.9549 145.814 46.1609C145.7 46.3645 145.643 46.6001 145.643 46.8676V50.2767H144.805ZM153.497 52.3221V44.8221H154.306V45.6886H154.406C154.467 45.5939 154.552 45.4732 154.661 45.3264C154.773 45.1772 154.931 45.0447 155.137 44.9287C155.345 44.8103 155.627 44.7511 155.982 44.7511C156.442 44.7511 156.846 44.8659 157.197 45.0956C157.547 45.3252 157.821 45.6507 158.017 46.0721C158.214 46.4935 158.312 46.9907 158.312 47.5636C158.312 48.1413 158.214 48.642 158.017 49.0657C157.821 49.4871 157.548 49.8138 157.2 50.0458C156.852 50.2755 156.451 50.3903 155.997 50.3903C155.646 50.3903 155.366 50.3323 155.155 50.2163C154.944 50.0979 154.782 49.9642 154.668 49.815C154.555 49.6635 154.467 49.538 154.406 49.4386H154.335V52.3221H153.497ZM154.32 47.5494C154.32 47.9613 154.381 48.3247 154.502 48.6396C154.622 48.9521 154.799 49.1971 155.031 49.3747C155.263 49.5499 155.547 49.6375 155.883 49.6375C156.233 49.6375 156.526 49.5451 156.76 49.3605C156.997 49.1734 157.174 48.9225 157.293 48.6076C157.413 48.2904 157.474 47.9377 157.474 47.5494C157.474 47.1659 157.415 46.8202 157.296 46.5125C157.18 46.2023 157.004 45.9573 156.767 45.7774C156.533 45.5951 156.238 45.5039 155.883 45.5039C155.542 45.5039 155.256 45.5904 155.024 45.7632C154.792 45.9336 154.616 46.1727 154.498 46.4805C154.38 46.7859 154.32 47.1422 154.32 47.5494ZM161.806 50.3903C161.314 50.3903 160.882 50.2731 160.51 50.0387C160.141 49.8044 159.852 49.4765 159.644 49.0551C159.438 48.6337 159.335 48.1413 159.335 47.5778C159.335 47.0096 159.438 46.5136 159.644 46.0899C159.852 45.6661 160.141 45.337 160.51 45.1027C160.882 44.8683 161.314 44.7511 161.806 44.7511C162.299 44.7511 162.729 44.8683 163.099 45.1027C163.47 45.337 163.759 45.6661 163.965 46.0899C164.174 46.5136 164.278 47.0096 164.278 47.5778C164.278 48.1413 164.174 48.6337 163.965 49.0551C163.759 49.4765 163.47 49.8044 163.099 50.0387C162.729 50.2731 162.299 50.3903 161.806 50.3903ZM161.806 49.6375C162.18 49.6375 162.488 49.5416 162.729 49.3498C162.971 49.1581 163.15 48.9059 163.266 48.5934C163.382 48.2809 163.44 47.9424 163.44 47.5778C163.44 47.2132 163.382 46.8735 163.266 46.5586C163.15 46.2438 162.971 45.9893 162.729 45.7951C162.488 45.601 162.18 45.5039 161.806 45.5039C161.432 45.5039 161.124 45.601 160.883 45.7951C160.641 45.9893 160.463 46.2438 160.347 46.5586C160.231 46.8735 160.173 47.2132 160.173 47.5778C160.173 47.9424 160.231 48.2809 160.347 48.5934C160.463 48.9059 160.641 49.1581 160.883 49.3498C161.124 49.5416 161.432 49.6375 161.806 49.6375ZM170.657 50.3903C170.131 50.3903 169.678 50.2743 169.296 50.0423C168.918 49.8079 168.625 49.4812 168.419 49.0622C168.216 48.6408 168.114 48.1507 168.114 47.592C168.114 47.0333 168.216 46.5409 168.419 46.1147C168.625 45.6862 168.912 45.3524 169.279 45.1133C169.648 44.8718 170.079 44.7511 170.571 44.7511C170.855 44.7511 171.136 44.7984 171.413 44.8931C171.69 44.9878 171.942 45.1417 172.169 45.3548C172.397 45.5655 172.578 45.8449 172.713 46.1929C172.848 46.5409 172.915 46.9694 172.915 47.4784V47.8335H168.71V47.1091H172.063C172.063 46.8013 172.001 46.5267 171.878 46.2852C171.757 46.0437 171.585 45.8531 171.36 45.7135C171.137 45.5738 170.874 45.5039 170.571 45.5039C170.237 45.5039 169.949 45.5868 169.705 45.7525C169.463 45.9159 169.277 46.1289 169.147 46.3917C169.017 46.6545 168.952 46.9362 168.952 47.2369V47.7199C168.952 48.1318 169.023 48.481 169.165 48.7674C169.309 49.0515 169.509 49.2681 169.765 49.4173C170.021 49.5641 170.318 49.6375 170.657 49.6375C170.877 49.6375 171.076 49.6067 171.253 49.5451C171.433 49.4812 171.588 49.3865 171.718 49.261C171.849 49.1332 171.949 48.9746 172.02 48.7852L172.83 49.0125C172.745 49.2871 172.601 49.5286 172.4 49.7369C172.199 49.9429 171.95 50.1038 171.654 50.2199C171.358 50.3335 171.026 50.3903 170.657 50.3903ZM175.028 46.9954V50.2767H174.19V44.8221H175V45.6744H175.071C175.198 45.3974 175.393 45.1749 175.653 45.0068C175.913 44.8363 176.25 44.7511 176.661 44.7511C177.031 44.7511 177.354 44.8269 177.631 44.9784C177.908 45.1275 178.123 45.3548 178.277 45.6602C178.431 45.9632 178.508 46.3467 178.508 46.8108V50.2767H177.67V46.8676C177.67 46.4391 177.559 46.1053 177.336 45.8662C177.114 45.6247 176.808 45.5039 176.42 45.5039C176.152 45.5039 175.913 45.5619 175.703 45.6779C175.494 45.794 175.33 45.9632 175.209 46.1858C175.088 46.4083 175.028 46.6782 175.028 46.9954ZM185.068 50.3903C184.557 50.3903 184.116 50.2696 183.747 50.0281C183.378 49.7866 183.093 49.454 182.895 49.0302C182.696 48.6065 182.596 48.1223 182.596 47.5778C182.596 47.0238 182.698 46.535 182.902 46.1112C183.108 45.685 183.394 45.3524 183.761 45.1133C184.13 44.8718 184.561 44.7511 185.054 44.7511C185.437 44.7511 185.783 44.8221 186.091 44.9642C186.398 45.1062 186.651 45.3051 186.847 45.5608C187.044 45.8164 187.165 46.1147 187.213 46.4556H186.375C186.311 46.2071 186.169 45.9869 185.949 45.7951C185.731 45.601 185.437 45.5039 185.068 45.5039C184.741 45.5039 184.455 45.5892 184.209 45.7596C183.965 45.9277 183.774 46.1656 183.637 46.4734C183.502 46.7788 183.434 47.1375 183.434 47.5494C183.434 47.9708 183.501 48.3377 183.633 48.6502C183.768 48.9627 183.958 49.2054 184.201 49.3782C184.448 49.5511 184.736 49.6375 185.068 49.6375C185.286 49.6375 185.483 49.5996 185.661 49.5238C185.839 49.4481 185.989 49.3392 186.112 49.1971C186.235 49.0551 186.323 48.8846 186.375 48.6858H187.213C187.165 49.0077 187.048 49.2977 186.861 49.5558C186.677 49.8115 186.432 50.0151 186.126 50.1666C185.823 50.3157 185.47 50.3903 185.068 50.3903ZM190.654 50.3903C190.161 50.3903 189.729 50.2731 189.358 50.0387C188.988 49.8044 188.7 49.4765 188.491 49.0551C188.285 48.6337 188.182 48.1413 188.182 47.5778C188.182 47.0096 188.285 46.5136 188.491 46.0899C188.7 45.6661 188.988 45.337 189.358 45.1027C189.729 44.8683 190.161 44.7511 190.654 44.7511C191.146 44.7511 191.577 44.8683 191.946 45.1027C192.318 45.337 192.607 45.6661 192.813 46.0899C193.021 46.5136 193.125 47.0096 193.125 47.5778C193.125 48.1413 193.021 48.6337 192.813 49.0551C192.607 49.4765 192.318 49.8044 191.946 50.0387C191.577 50.2731 191.146 50.3903 190.654 50.3903ZM190.654 49.6375C191.028 49.6375 191.336 49.5416 191.577 49.3498C191.819 49.1581 191.997 48.9059 192.113 48.5934C192.229 48.2809 192.287 47.9424 192.287 47.5778C192.287 47.2132 192.229 46.8735 192.113 46.5586C191.997 46.2438 191.819 45.9893 191.577 45.7951C191.336 45.601 191.028 45.5039 190.654 45.5039C190.28 45.5039 189.972 45.601 189.731 45.7951C189.489 45.9893 189.31 46.2438 189.194 46.5586C189.078 46.8735 189.02 47.2132 189.02 47.5778C189.02 47.9424 189.078 48.2809 189.194 48.5934C189.31 48.9059 189.489 49.1581 189.731 49.3498C189.972 49.5416 190.28 49.6375 190.654 49.6375ZM195.243 46.9954V50.2767H194.405V44.8221H195.214V45.6744H195.285C195.413 45.3974 195.607 45.1749 195.868 45.0068C196.128 44.8363 196.464 44.7511 196.876 44.7511C197.246 44.7511 197.569 44.8269 197.846 44.9784C198.123 45.1275 198.338 45.3548 198.492 45.6602C198.646 45.9632 198.723 46.3467 198.723 46.8108V50.2767H197.885V46.8676C197.885 46.4391 197.774 46.1053 197.551 45.8662C197.329 45.6247 197.023 45.5039 196.635 45.5039C196.367 45.5039 196.128 45.5619 195.918 45.6779C195.709 45.794 195.545 45.9632 195.424 46.1858C195.303 46.4083 195.243 46.6782 195.243 46.9954ZM204.519 44.8221L202.502 50.2767H201.65L199.633 44.8221H200.542L202.048 49.1687H202.104L203.61 44.8221H204.519ZM207.717 50.3903C207.191 50.3903 206.738 50.2743 206.357 50.0423C205.978 49.8079 205.686 49.4812 205.48 49.0622C205.276 48.6408 205.174 48.1507 205.174 47.592C205.174 47.0333 205.276 46.5409 205.48 46.1147C205.686 45.6862 205.972 45.3524 206.339 45.1133C206.709 44.8718 207.139 44.7511 207.632 44.7511C207.916 44.7511 208.196 44.7984 208.473 44.8931C208.75 44.9878 209.003 45.1417 209.23 45.3548C209.457 45.5655 209.638 45.8449 209.773 46.1929C209.908 46.5409 209.976 46.9694 209.976 47.4784V47.8335H205.771V47.1091H209.123C209.123 46.8013 209.062 46.5267 208.939 46.2852C208.818 46.0437 208.645 45.8531 208.42 45.7135C208.198 45.5738 207.935 45.5039 207.632 45.5039C207.298 45.5039 207.009 45.5868 206.765 45.7525C206.524 45.9159 206.338 46.1289 206.208 46.3917C206.078 46.6545 206.013 46.9362 206.013 47.2369V47.7199C206.013 48.1318 206.084 48.481 206.226 48.7674C206.37 49.0515 206.57 49.2681 206.826 49.4173C207.081 49.5641 207.379 49.6375 207.717 49.6375C207.937 49.6375 208.136 49.6067 208.314 49.5451C208.494 49.4812 208.649 49.3865 208.779 49.261C208.909 49.1332 209.01 48.9746 209.081 48.7852L209.89 49.0125C209.805 49.2871 209.662 49.5286 209.461 49.7369C209.259 49.9429 209.011 50.1038 208.715 50.2199C208.419 50.3335 208.086 50.3903 207.717 50.3903ZM211.25 50.2767V44.8221H212.06V45.646H212.117C212.216 45.3761 212.396 45.1571 212.657 44.989C212.917 44.8209 213.211 44.7369 213.537 44.7369C213.599 44.7369 213.676 44.7381 213.768 44.7404C213.861 44.7428 213.93 44.7464 213.978 44.7511V45.6034C213.949 45.5963 213.884 45.5856 213.782 45.5714C213.683 45.5548 213.578 45.5466 213.466 45.5466C213.201 45.5466 212.964 45.6022 212.756 45.7135C212.55 45.8224 212.387 45.9739 212.266 46.168C212.148 46.3598 212.089 46.5788 212.089 46.825V50.2767H211.25ZM218.835 46.0437L218.082 46.2568C218.035 46.1313 217.965 46.0094 217.872 45.891C217.782 45.7703 217.659 45.6708 217.503 45.5927C217.347 45.5146 217.147 45.4755 216.903 45.4755C216.569 45.4755 216.291 45.5525 216.068 45.7064C215.848 45.8579 215.738 46.0508 215.738 46.2852C215.738 46.4935 215.814 46.6581 215.965 46.7788C216.117 46.8995 216.354 47.0002 216.676 47.0806L217.485 47.2795C217.973 47.3979 218.336 47.579 218.576 47.8228C218.815 48.0643 218.934 48.3756 218.934 48.7568C218.934 49.0693 218.844 49.3486 218.664 49.5949C218.487 49.8411 218.238 50.0352 217.919 50.1772C217.599 50.3193 217.227 50.3903 216.804 50.3903C216.247 50.3903 215.787 50.2696 215.422 50.0281C215.058 49.7866 214.827 49.4339 214.73 48.9699L215.525 48.771C215.601 49.0645 215.744 49.2847 215.955 49.4315C216.168 49.5783 216.446 49.6517 216.789 49.6517C217.18 49.6517 217.49 49.5688 217.72 49.4031C217.952 49.235 218.068 49.0338 218.068 48.7994C218.068 48.61 218.001 48.4514 217.869 48.3235C217.736 48.1933 217.533 48.0963 217.258 48.0324L216.349 47.8193C215.849 47.7009 215.483 47.5174 215.248 47.2689C215.016 47.0179 214.9 46.7042 214.9 46.3278C214.9 46.02 214.987 45.7478 215.159 45.511C215.335 45.2743 215.572 45.0885 215.873 44.9535C216.176 44.8186 216.519 44.7511 216.903 44.7511C217.443 44.7511 217.867 44.8695 218.174 45.1062C218.484 45.343 218.705 45.6555 218.835 46.0437ZM221.801 50.4045C221.455 50.4045 221.142 50.3394 220.86 50.2092C220.578 50.0766 220.354 49.886 220.189 49.6375C220.023 49.3865 219.94 49.0835 219.94 48.7284C219.94 48.4159 220.002 48.1626 220.125 47.9684C220.248 47.7719 220.412 47.6181 220.618 47.5068C220.824 47.3955 221.052 47.3127 221.3 47.2582C221.551 47.2014 221.803 47.1564 222.057 47.1233C222.388 47.0806 222.657 47.0487 222.863 47.0274C223.071 47.0037 223.223 46.9646 223.317 46.9102C223.414 46.8557 223.463 46.761 223.463 46.6261V46.5977C223.463 46.2473 223.367 45.9751 223.175 45.7809C222.986 45.5868 222.698 45.4897 222.312 45.4897C221.912 45.4897 221.598 45.5773 221.371 45.7525C221.144 45.9277 220.984 46.1147 220.892 46.3136L220.096 46.0295C220.238 45.6981 220.428 45.44 220.665 45.2554C220.904 45.0683 221.164 44.9381 221.446 44.8647C221.73 44.789 222.009 44.7511 222.284 44.7511C222.459 44.7511 222.66 44.7724 222.888 44.815C223.117 44.8553 223.339 44.9393 223.552 45.0672C223.767 45.195 223.946 45.3879 224.088 45.646C224.23 45.904 224.301 46.2497 224.301 46.6829V50.2767H223.463V49.538H223.42C223.363 49.6564 223.269 49.7831 223.136 49.918C223.004 50.0529 222.827 50.1678 222.607 50.2625C222.387 50.3572 222.118 50.4045 221.801 50.4045ZM221.929 49.6517C222.26 49.6517 222.54 49.5866 222.767 49.4564C222.996 49.3261 223.169 49.1581 223.285 48.9521C223.404 48.7461 223.463 48.5295 223.463 48.3022V47.5352C223.427 47.5778 223.349 47.6169 223.228 47.6524C223.11 47.6855 222.973 47.7151 222.816 47.7412C222.663 47.7648 222.512 47.7861 222.366 47.8051C222.221 47.8216 222.104 47.8359 222.014 47.8477C221.796 47.8761 221.593 47.9223 221.403 47.9862C221.216 48.0477 221.065 48.1413 220.949 48.2667C220.835 48.3898 220.778 48.5579 220.778 48.771C220.778 49.0622 220.886 49.2824 221.101 49.4315C221.319 49.5783 221.595 49.6517 221.929 49.6517ZM228.046 50.3903C227.535 50.3903 227.095 50.2696 226.725 50.0281C226.356 49.7866 226.072 49.454 225.873 49.0302C225.674 48.6065 225.575 48.1223 225.575 47.5778C225.575 47.0238 225.677 46.535 225.88 46.1112C226.086 45.685 226.373 45.3524 226.74 45.1133C227.109 44.8718 227.54 44.7511 228.032 44.7511C228.416 44.7511 228.761 44.8221 229.069 44.9642C229.377 45.1062 229.629 45.3051 229.826 45.5608C230.022 45.8164 230.144 46.1147 230.191 46.4556H229.353C229.289 46.2071 229.147 45.9869 228.927 45.7951C228.709 45.601 228.416 45.5039 228.046 45.5039C227.72 45.5039 227.433 45.5892 227.187 45.7596C226.943 45.9277 226.753 46.1656 226.615 46.4734C226.48 46.7788 226.413 47.1375 226.413 47.5494C226.413 47.9708 226.479 48.3377 226.612 48.6502C226.747 48.9627 226.936 49.2054 227.18 49.3782C227.426 49.5511 227.715 49.6375 228.046 49.6375C228.264 49.6375 228.462 49.5996 228.639 49.5238C228.817 49.4481 228.967 49.3392 229.09 49.1971C229.214 49.0551 229.301 48.8846 229.353 48.6858H230.191C230.144 49.0077 230.027 49.2977 229.84 49.5558C229.655 49.8115 229.41 50.0151 229.105 50.1666C228.802 50.3157 228.449 50.3903 228.046 50.3903ZM231.416 50.2767V44.8221H232.255V50.2767H231.416ZM231.843 43.913C231.679 43.913 231.538 43.8574 231.42 43.7461C231.304 43.6349 231.246 43.5011 231.246 43.3449C231.246 43.1886 231.304 43.0548 231.42 42.9436C231.538 42.8323 231.679 42.7767 231.843 42.7767C232.006 42.7767 232.146 42.8323 232.262 42.9436C232.38 43.0548 232.439 43.1886 232.439 43.3449C232.439 43.5011 232.38 43.6349 232.262 43.7461C232.146 43.8574 232.006 43.913 231.843 43.913ZM236.005 50.3903C235.513 50.3903 235.081 50.2731 234.709 50.0387C234.34 49.8044 234.051 49.4765 233.843 49.0551C233.637 48.6337 233.534 48.1413 233.534 47.5778C233.534 47.0096 233.637 46.5136 233.843 46.0899C234.051 45.6661 234.34 45.337 234.709 45.1027C235.081 44.8683 235.513 44.7511 236.005 44.7511C236.498 44.7511 236.929 44.8683 237.298 45.1027C237.67 45.337 237.959 45.6661 238.165 46.0899C238.373 46.5136 238.477 47.0096 238.477 47.5778C238.477 48.1413 238.373 48.6337 238.165 49.0551C237.959 49.4765 237.67 49.8044 237.298 50.0387C236.929 50.2731 236.498 50.3903 236.005 50.3903ZM236.005 49.6375C236.379 49.6375 236.687 49.5416 236.929 49.3498C237.17 49.1581 237.349 48.9059 237.465 48.5934C237.581 48.2809 237.639 47.9424 237.639 47.5778C237.639 47.2132 237.581 46.8735 237.465 46.5586C237.349 46.2438 237.17 45.9893 236.929 45.7951C236.687 45.601 236.379 45.5039 236.005 45.5039C235.631 45.5039 235.324 45.601 235.082 45.7951C234.841 45.9893 234.662 46.2438 234.546 46.5586C234.43 46.8735 234.372 47.2132 234.372 47.5778C234.372 47.9424 234.43 48.2809 234.546 48.5934C234.662 48.9059 234.841 49.1581 235.082 49.3498C235.324 49.5416 235.631 49.6375 236.005 49.6375ZM235.622 44.0835L236.488 42.4358H237.468L236.361 44.0835H235.622ZM240.594 46.9954V50.2767H239.756V44.8221H240.566V45.6744H240.637C240.765 45.3974 240.959 45.1749 241.219 45.0068C241.48 44.8363 241.816 44.7511 242.228 44.7511C242.597 44.7511 242.92 44.8269 243.197 44.9784C243.474 45.1275 243.69 45.3548 243.844 45.6602C243.998 45.9632 244.074 46.3467 244.074 46.8108V50.2767H243.236V46.8676C243.236 46.4391 243.125 46.1053 242.903 45.8662C242.68 45.6247 242.375 45.5039 241.986 45.5039C241.719 45.5039 241.48 45.5619 241.269 45.6779C241.061 45.794 240.896 45.9632 240.775 46.1858C240.655 46.4083 240.594 46.6782 240.594 46.9954ZM250.705 50.3903C250.18 50.3903 249.726 50.2743 249.345 50.0423C248.966 49.8079 248.674 49.4812 248.468 49.0622C248.265 48.6408 248.163 48.1507 248.163 47.592C248.163 47.0333 248.265 46.5409 248.468 46.1147C248.674 45.6862 248.961 45.3524 249.328 45.1133C249.697 44.8718 250.128 44.7511 250.62 44.7511C250.904 44.7511 251.185 44.7984 251.462 44.8931C251.739 44.9878 251.991 45.1417 252.218 45.3548C252.445 45.5655 252.627 45.8449 252.761 46.1929C252.896 46.5409 252.964 46.9694 252.964 47.4784V47.8335H248.759V47.1091H252.112C252.112 46.8013 252.05 46.5267 251.927 46.2852C251.806 46.0437 251.633 45.8531 251.408 45.7135C251.186 45.5738 250.923 45.5039 250.62 45.5039C250.286 45.5039 249.997 45.5868 249.754 45.7525C249.512 45.9159 249.326 46.1289 249.196 46.3917C249.066 46.6545 249.001 46.9362 249.001 47.2369V47.7199C249.001 48.1318 249.072 48.481 249.214 48.7674C249.358 49.0515 249.558 49.2681 249.814 49.4173C250.07 49.5641 250.367 49.6375 250.705 49.6375C250.926 49.6375 251.124 49.6067 251.302 49.5451C251.482 49.4812 251.637 49.3865 251.767 49.261C251.897 49.1332 251.998 48.9746 252.069 48.7852L252.879 49.0125C252.793 49.2871 252.65 49.5286 252.449 49.7369C252.248 49.9429 251.999 50.1038 251.703 50.2199C251.407 50.3335 251.075 50.3903 250.705 50.3903ZM255.077 46.9954V50.2767H254.239V44.8221H255.048V45.6744H255.119C255.247 45.3974 255.441 45.1749 255.702 45.0068C255.962 44.8363 256.298 44.7511 256.71 44.7511C257.08 44.7511 257.403 44.8269 257.68 44.9784C257.957 45.1275 258.172 45.3548 258.326 45.6602C258.48 45.9632 258.557 46.3467 258.557 46.8108V50.2767H257.719V46.8676C257.719 46.4391 257.608 46.1053 257.385 45.8662C257.162 45.6247 256.857 45.5039 256.469 45.5039C256.201 45.5039 255.962 45.5619 255.752 45.6779C255.543 45.794 255.379 45.9632 255.258 46.1858C255.137 46.4083 255.077 46.6782 255.077 46.9954ZM262.46 44.8221V45.5324H259.634V44.8221H262.46ZM260.458 43.5153H261.296V48.7142C261.296 48.9509 261.33 49.1285 261.399 49.2468C261.47 49.3628 261.56 49.441 261.669 49.4812C261.78 49.5191 261.897 49.538 262.02 49.538C262.112 49.538 262.188 49.5333 262.247 49.5238C262.307 49.512 262.354 49.5025 262.389 49.4954L262.56 50.2483C262.503 50.2696 262.424 50.2909 262.322 50.3122C262.22 50.3359 262.091 50.3477 261.935 50.3477C261.698 50.3477 261.466 50.2968 261.239 50.195C261.014 50.0932 260.827 49.9381 260.678 49.7298C260.531 49.5215 260.458 49.2587 260.458 48.9414V43.5153ZM263.721 50.2767V44.8221H264.531V45.646H264.588C264.687 45.3761 264.867 45.1571 265.127 44.989C265.388 44.8209 265.681 44.7369 266.008 44.7369C266.07 44.7369 266.147 44.7381 266.239 44.7404C266.331 44.7428 266.401 44.7464 266.448 44.7511V45.6034C266.42 45.5963 266.355 45.5856 266.253 45.5714C266.154 45.5548 266.048 45.5466 265.937 45.5466C265.672 45.5466 265.435 45.6022 265.227 45.7135C265.021 45.8224 264.858 45.9739 264.737 46.168C264.618 46.3598 264.559 46.5788 264.559 46.825V50.2767H263.721ZM269.047 50.4045C268.701 50.4045 268.388 50.3394 268.106 50.2092C267.824 50.0766 267.6 49.886 267.435 49.6375C267.269 49.3865 267.186 49.0835 267.186 48.7284C267.186 48.4159 267.248 48.1626 267.371 47.9684C267.494 47.7719 267.658 47.6181 267.864 47.5068C268.07 47.3955 268.298 47.3127 268.546 47.2582C268.797 47.2014 269.049 47.1564 269.303 47.1233C269.634 47.0806 269.903 47.0487 270.109 47.0274C270.317 47.0037 270.469 46.9646 270.563 46.9102C270.66 46.8557 270.709 46.761 270.709 46.6261V46.5977C270.709 46.2473 270.613 45.9751 270.421 45.7809C270.232 45.5868 269.944 45.4897 269.558 45.4897C269.158 45.4897 268.845 45.5773 268.617 45.7525C268.39 45.9277 268.23 46.1147 268.138 46.3136L267.342 46.0295C267.484 45.6981 267.674 45.44 267.911 45.2554C268.15 45.0683 268.41 44.9381 268.692 44.8647C268.976 44.789 269.255 44.7511 269.53 44.7511C269.705 44.7511 269.906 44.7724 270.134 44.815C270.363 44.8553 270.585 44.9393 270.798 45.0672C271.013 45.195 271.192 45.3879 271.334 45.646C271.476 45.904 271.547 46.2497 271.547 46.6829V50.2767H270.709V49.538H270.666C270.609 49.6564 270.515 49.7831 270.382 49.918C270.25 50.0529 270.073 50.1678 269.853 50.2625C269.633 50.3572 269.364 50.4045 269.047 50.4045ZM269.175 49.6517C269.506 49.6517 269.786 49.5866 270.013 49.4564C270.243 49.3261 270.415 49.1581 270.531 48.9521C270.65 48.7461 270.709 48.5295 270.709 48.3022V47.5352C270.673 47.5778 270.595 47.6169 270.475 47.6524C270.356 47.6855 270.219 47.7151 270.063 47.7412C269.909 47.7648 269.758 47.7861 269.612 47.8051C269.467 47.8216 269.35 47.8359 269.26 47.8477C269.042 47.8761 268.839 47.9223 268.649 47.9862C268.462 48.0477 268.311 48.1413 268.195 48.2667C268.081 48.3898 268.024 48.5579 268.024 48.771C268.024 49.0622 268.132 49.2824 268.347 49.4315C268.565 49.5783 268.841 49.6517 269.175 49.6517ZM273.915 46.9954V50.2767H273.077V44.8221H273.886V45.6744H273.957C274.085 45.3974 274.279 45.1749 274.54 45.0068C274.8 44.8363 275.136 44.7511 275.548 44.7511C275.918 44.7511 276.241 44.8269 276.518 44.9784C276.795 45.1275 277.01 45.3548 277.164 45.6602C277.318 45.9632 277.395 46.3467 277.395 46.8108V50.2767H276.557V46.8676C276.557 46.4391 276.445 46.1053 276.223 45.8662C276 45.6247 275.695 45.5039 275.307 45.5039C275.039 45.5039 274.8 45.5619 274.589 45.6779C274.381 45.794 274.217 45.9632 274.096 46.1858C273.975 46.4083 273.915 46.6782 273.915 46.9954ZM281.298 44.8221V45.5324H278.472V44.8221H281.298ZM279.296 43.5153H280.134V48.7142C280.134 48.9509 280.168 49.1285 280.237 49.2468C280.308 49.3628 280.398 49.441 280.506 49.4812C280.618 49.5191 280.735 49.538 280.858 49.538C280.95 49.538 281.026 49.5333 281.085 49.5238C281.145 49.512 281.192 49.5025 281.227 49.4954L281.398 50.2483C281.341 50.2696 281.262 50.2909 281.16 50.3122C281.058 50.3359 280.929 50.3477 280.773 50.3477C280.536 50.3477 280.304 50.2968 280.077 50.195C279.852 50.0932 279.665 49.9381 279.516 49.7298C279.369 49.5215 279.296 49.2587 279.296 48.9414V43.5153ZM284.787 50.3903C284.262 50.3903 283.808 50.2743 283.427 50.0423C283.049 49.8079 282.756 49.4812 282.55 49.0622C282.347 48.6408 282.245 48.1507 282.245 47.592C282.245 47.0333 282.347 46.5409 282.55 46.1147C282.756 45.6862 283.043 45.3524 283.41 45.1133C283.779 44.8718 284.21 44.7511 284.702 44.7511C284.986 44.7511 285.267 44.7984 285.544 44.8931C285.821 44.9878 286.073 45.1417 286.3 45.3548C286.527 45.5655 286.709 45.8449 286.843 46.1929C286.978 46.5409 287.046 46.9694 287.046 47.4784V47.8335H282.841V47.1091H286.194C286.194 46.8013 286.132 46.5267 286.009 46.2852C285.888 46.0437 285.715 45.8531 285.491 45.7135C285.268 45.5738 285.005 45.5039 284.702 45.5039C284.368 45.5039 284.08 45.5868 283.836 45.7525C283.594 45.9159 283.408 46.1289 283.278 46.3917C283.148 46.6545 283.083 46.9362 283.083 47.2369V47.7199C283.083 48.1318 283.154 48.481 283.296 48.7674C283.44 49.0515 283.64 49.2681 283.896 49.4173C284.152 49.5641 284.449 49.6375 284.787 49.6375C285.008 49.6375 285.206 49.6067 285.384 49.5451C285.564 49.4812 285.719 49.3865 285.849 49.261C285.979 49.1332 286.08 48.9746 286.151 48.7852L286.961 49.0125C286.875 49.2871 286.732 49.5286 286.531 49.7369C286.33 49.9429 286.081 50.1038 285.785 50.2199C285.489 50.3335 285.157 50.3903 284.787 50.3903ZM291.133 52.3221V44.8221H291.943V45.6886H292.042C292.104 45.5939 292.189 45.4732 292.298 45.3264C292.409 45.1772 292.568 45.0447 292.774 44.9287C292.982 44.8103 293.264 44.7511 293.619 44.7511C294.078 44.7511 294.483 44.8659 294.834 45.0956C295.184 45.3252 295.457 45.6507 295.654 46.0721C295.85 46.4935 295.949 46.9907 295.949 47.5636C295.949 48.1413 295.85 48.642 295.654 49.0657C295.457 49.4871 295.185 49.8138 294.837 50.0458C294.489 50.2755 294.088 50.3903 293.633 50.3903C293.283 50.3903 293.002 50.3323 292.792 50.2163C292.581 50.0979 292.419 49.9642 292.305 49.815C292.191 49.6635 292.104 49.538 292.042 49.4386H291.971V52.3221H291.133ZM291.957 47.5494C291.957 47.9613 292.017 48.3247 292.138 48.6396C292.259 48.9521 292.435 49.1971 292.667 49.3747C292.899 49.5499 293.183 49.6375 293.52 49.6375C293.87 49.6375 294.162 49.5451 294.397 49.3605C294.633 49.1734 294.811 48.9225 294.929 48.6076C295.05 48.2904 295.111 47.9377 295.111 47.5494C295.111 47.1659 295.051 46.8202 294.933 46.5125C294.817 46.2023 294.641 45.9573 294.404 45.7774C294.169 45.5951 293.875 45.5039 293.52 45.5039C293.179 45.5039 292.892 45.5904 292.66 45.7632C292.428 45.9336 292.253 46.1727 292.135 46.4805C292.016 46.7859 291.957 47.1422 291.957 47.5494ZM299.443 50.3903C298.95 50.3903 298.518 50.2731 298.147 50.0387C297.777 49.8044 297.489 49.4765 297.28 49.0551C297.074 48.6337 296.971 48.1413 296.971 47.5778C296.971 47.0096 297.074 46.5136 297.28 46.0899C297.489 45.6661 297.777 45.337 298.147 45.1027C298.518 44.8683 298.95 44.7511 299.443 44.7511C299.935 44.7511 300.366 44.8683 300.736 45.1027C301.107 45.337 301.396 45.6661 301.602 46.0899C301.81 46.5136 301.915 47.0096 301.915 47.5778C301.915 48.1413 301.81 48.6337 301.602 49.0551C301.396 49.4765 301.107 49.8044 300.736 50.0387C300.366 50.2731 299.935 50.3903 299.443 50.3903ZM299.443 49.6375C299.817 49.6375 300.125 49.5416 300.366 49.3498C300.608 49.1581 300.786 48.9059 300.902 48.5934C301.018 48.2809 301.076 47.9424 301.076 47.5778C301.076 47.2132 301.018 46.8735 300.902 46.5586C300.786 46.2438 300.608 45.9893 300.366 45.7951C300.125 45.601 299.817 45.5039 299.443 45.5039C299.069 45.5039 298.761 45.601 298.52 45.7951C298.278 45.9893 298.099 46.2438 297.983 46.5586C297.867 46.8735 297.809 47.2132 297.809 47.5778C297.809 47.9424 297.867 48.2809 297.983 48.5934C298.099 48.9059 298.278 49.1581 298.52 49.3498C298.761 49.5416 299.069 49.6375 299.443 49.6375ZM303.194 50.2767V44.8221H304.003V45.646H304.06C304.16 45.3761 304.34 45.1571 304.6 44.989C304.86 44.8209 305.154 44.7369 305.481 44.7369C305.542 44.7369 305.619 44.7381 305.712 44.7404C305.804 44.7428 305.874 44.7464 305.921 44.7511V45.6034C305.893 45.5963 305.828 45.5856 305.726 45.5714C305.626 45.5548 305.521 45.5466 305.41 45.5466C305.145 45.5466 304.908 45.6022 304.699 45.7135C304.494 45.8224 304.33 45.9739 304.209 46.168C304.091 46.3598 304.032 46.5788 304.032 46.825V50.2767H303.194ZM311.332 50.4045C310.986 50.4045 310.673 50.3394 310.391 50.2092C310.109 50.0766 309.886 49.886 309.72 49.6375C309.554 49.3865 309.471 49.0835 309.471 48.7284C309.471 48.4159 309.533 48.1626 309.656 47.9684C309.779 47.7719 309.944 47.6181 310.15 47.5068C310.356 47.3955 310.583 47.3127 310.831 47.2582C311.082 47.2014 311.334 47.1564 311.588 47.1233C311.919 47.0806 312.188 47.0487 312.394 47.0274C312.602 47.0037 312.754 46.9646 312.848 46.9102C312.946 46.8557 312.994 46.761 312.994 46.6261V46.5977C312.994 46.2473 312.898 45.9751 312.706 45.7809C312.517 45.5868 312.229 45.4897 311.843 45.4897C311.443 45.4897 311.13 45.5773 310.902 45.7525C310.675 45.9277 310.515 46.1147 310.423 46.3136L309.628 46.0295C309.77 45.6981 309.959 45.44 310.196 45.2554C310.435 45.0683 310.695 44.9381 310.977 44.8647C311.261 44.789 311.54 44.7511 311.815 44.7511C311.99 44.7511 312.191 44.7724 312.419 44.815C312.648 44.8553 312.87 44.9393 313.083 45.0672C313.298 45.195 313.477 45.3879 313.619 45.646C313.761 45.904 313.832 46.2497 313.832 46.6829V50.2767H312.994V49.538H312.951C312.895 49.6564 312.8 49.7831 312.667 49.918C312.535 50.0529 312.358 50.1678 312.138 50.2625C311.918 50.3572 311.649 50.4045 311.332 50.4045ZM311.46 49.6517C311.791 49.6517 312.071 49.5866 312.298 49.4564C312.528 49.3261 312.7 49.1581 312.816 48.9521C312.935 48.7461 312.994 48.5295 312.994 48.3022V47.5352C312.959 47.5778 312.88 47.6169 312.76 47.6524C312.641 47.6855 312.504 47.7151 312.348 47.7412C312.194 47.7648 312.044 47.7861 311.897 47.8051C311.752 47.8216 311.635 47.8359 311.545 47.8477C311.327 47.8761 311.124 47.9223 310.934 47.9862C310.747 48.0477 310.596 48.1413 310.48 48.2667C310.366 48.3898 310.309 48.5579 310.309 48.771C310.309 49.0622 310.417 49.2824 310.633 49.4315C310.85 49.5783 311.126 49.6517 311.46 49.6517ZM317.563 52.4358C317.159 52.4358 316.811 52.3837 316.519 52.2795C316.228 52.1777 315.986 52.0428 315.791 51.8747C315.6 51.709 315.447 51.5314 315.333 51.342L316.001 50.8733C316.077 50.9727 316.173 51.0863 316.289 51.2142C316.405 51.3444 316.563 51.4568 316.764 51.5515C316.968 51.6486 317.234 51.6971 317.563 51.6971C318.004 51.6971 318.367 51.5906 318.654 51.3775C318.94 51.1645 319.083 50.8306 319.083 50.3761V49.2681H319.012C318.951 49.3676 318.863 49.4907 318.75 49.6375C318.638 49.7819 318.477 49.9109 318.267 50.0245C318.058 50.1358 317.777 50.1914 317.421 50.1914C316.981 50.1914 316.586 50.0873 316.235 49.8789C315.887 49.6706 315.612 49.3676 315.408 48.9699C315.207 48.5721 315.106 48.0892 315.106 47.521C315.106 46.9623 315.204 46.4758 315.401 46.0615C315.597 45.6448 315.871 45.3228 316.221 45.0956C316.572 44.8659 316.976 44.7511 317.436 44.7511C317.791 44.7511 318.072 44.8103 318.281 44.9287C318.492 45.0447 318.652 45.1772 318.764 45.3264C318.877 45.4732 318.965 45.5939 319.027 45.6886H319.112V44.8221H319.921V50.4329C319.921 50.9017 319.815 51.2828 319.602 51.5764C319.391 51.8723 319.107 52.0889 318.75 52.2262C318.394 52.3659 317.999 52.4358 317.563 52.4358ZM317.535 49.4386C317.871 49.4386 318.155 49.3617 318.387 49.2078C318.619 49.0539 318.796 48.8325 318.916 48.5437C319.037 48.2549 319.098 47.9092 319.098 47.5068C319.098 47.1138 319.038 46.767 318.92 46.4663C318.802 46.1656 318.626 45.9301 318.394 45.7596C318.162 45.5892 317.876 45.5039 317.535 45.5039C317.18 45.5039 316.884 45.5939 316.647 45.7738C316.413 45.9538 316.237 46.1952 316.118 46.4983C316.002 46.8013 315.944 47.1375 315.944 47.5068C315.944 47.8856 316.003 48.2206 316.122 48.5118C316.242 48.8006 316.42 49.0279 316.654 49.1936C316.891 49.3569 317.185 49.4386 317.535 49.4386ZM323.742 50.3903C323.217 50.3903 322.764 50.2743 322.382 50.0423C322.004 49.8079 321.711 49.4812 321.505 49.0622C321.302 48.6408 321.2 48.1507 321.2 47.592C321.2 47.0333 321.302 46.5409 321.505 46.1147C321.711 45.6862 321.998 45.3524 322.365 45.1133C322.734 44.8718 323.165 44.7511 323.657 44.7511C323.941 44.7511 324.222 44.7984 324.499 44.8931C324.776 44.9878 325.028 45.1417 325.255 45.3548C325.483 45.5655 325.664 45.8449 325.799 46.1929C325.934 46.5409 326.001 46.9694 326.001 47.4784V47.8335H321.796V47.1091H325.149C325.149 46.8013 325.087 46.5267 324.964 46.2852C324.843 46.0437 324.67 45.8531 324.446 45.7135C324.223 45.5738 323.96 45.5039 323.657 45.5039C323.323 45.5039 323.035 45.5868 322.791 45.7525C322.549 45.9159 322.363 46.1289 322.233 46.3917C322.103 46.6545 322.038 46.9362 322.038 47.2369V47.7199C322.038 48.1318 322.109 48.481 322.251 48.7674C322.395 49.0515 322.595 49.2681 322.851 49.4173C323.107 49.5641 323.404 49.6375 323.742 49.6375C323.963 49.6375 324.161 49.6067 324.339 49.5451C324.519 49.4812 324.674 49.3865 324.804 49.261C324.934 49.1332 325.035 48.9746 325.106 48.7852L325.916 49.0125C325.831 49.2871 325.687 49.5286 325.486 49.7369C325.285 49.9429 325.036 50.1038 324.74 50.2199C324.444 50.3335 324.112 50.3903 323.742 50.3903ZM328.114 46.9954V50.2767H327.276V44.8221H328.085V45.6744H328.157C328.284 45.3974 328.478 45.1749 328.739 45.0068C328.999 44.8363 329.335 44.7511 329.747 44.7511C330.117 44.7511 330.44 44.8269 330.717 44.9784C330.994 45.1275 331.209 45.3548 331.363 45.6602C331.517 45.9632 331.594 46.3467 331.594 46.8108V50.2767H330.756V46.8676C330.756 46.4391 330.645 46.1053 330.422 45.8662C330.2 45.6247 329.894 45.5039 329.506 45.5039C329.238 45.5039 328.999 45.5619 328.789 45.6779C328.58 45.794 328.416 45.9632 328.295 46.1858C328.174 46.4083 328.114 46.6782 328.114 46.9954ZM335.498 44.8221V45.5324H332.671V44.8221H335.498ZM333.495 43.5153H334.333V48.7142C334.333 48.9509 334.367 49.1285 334.436 49.2468C334.507 49.3628 334.597 49.441 334.706 49.4812C334.817 49.5191 334.934 49.538 335.057 49.538C335.15 49.538 335.225 49.5333 335.285 49.5238C335.344 49.512 335.391 49.5025 335.427 49.4954L335.597 50.2483C335.54 50.2696 335.461 50.2909 335.359 50.3122C335.257 50.3359 335.128 50.3477 334.972 50.3477C334.735 50.3477 334.503 50.2968 334.276 50.195C334.051 50.0932 333.864 49.9381 333.715 49.7298C333.568 49.5215 333.495 49.2587 333.495 48.9414V43.5153ZM338.987 50.3903C338.461 50.3903 338.008 50.2743 337.627 50.0423C337.248 49.8079 336.955 49.4812 336.749 49.0622C336.546 48.6408 336.444 48.1507 336.444 47.592C336.444 47.0333 336.546 46.5409 336.749 46.1147C336.955 45.6862 337.242 45.3524 337.609 45.1133C337.978 44.8718 338.409 44.7511 338.901 44.7511C339.185 44.7511 339.466 44.7984 339.743 44.8931C340.02 44.9878 340.272 45.1417 340.499 45.3548C340.727 45.5655 340.908 45.8449 341.043 46.1929C341.178 46.5409 341.245 46.9694 341.245 47.4784V47.8335H337.041V47.1091H340.393C340.393 46.8013 340.331 46.5267 340.208 46.2852C340.087 46.0437 339.915 45.8531 339.69 45.7135C339.467 45.5738 339.204 45.5039 338.901 45.5039C338.568 45.5039 338.279 45.5868 338.035 45.7525C337.793 45.9159 337.608 46.1289 337.477 46.3917C337.347 46.6545 337.282 46.9362 337.282 47.2369V47.7199C337.282 48.1318 337.353 48.481 337.495 48.7674C337.64 49.0515 337.84 49.2681 338.095 49.4173C338.351 49.5641 338.648 49.6375 338.987 49.6375C339.207 49.6375 339.406 49.6067 339.583 49.5451C339.763 49.4812 339.918 49.3865 340.048 49.261C340.179 49.1332 340.279 48.9746 340.35 48.7852L341.16 49.0125C341.075 49.2871 340.931 49.5286 340.73 49.7369C340.529 49.9429 340.28 50.1038 339.984 50.2199C339.689 50.3335 339.356 50.3903 338.987 50.3903Z" fill="#3C3C41"/>
</svg>
