<?xml version="1.0" encoding="UTF-8" standalone="no"?>
<!DOCTYPE svg PUBLIC "-//W3C//DTD SVG 1.1//EN" "http://www.w3.org/Graphics/SVG/1.1/DTD/svg11.dtd">
<svg width="100%" height="100%" viewBox="0 0 225 159" version="1.1" xmlns="http://www.w3.org/2000/svg" xmlns:xlink="http://www.w3.org/1999/xlink" xml:space="preserve" xmlns:serif="http://www.serif.com/" style="fill-rule:evenodd;clip-rule:evenodd;stroke-linejoin:round;stroke-miterlimit:2;">
    <g transform="matrix(1,0,0,1,0,-33)">
        <path d="M224.999,101.5L224.999,123.5C224.661,124.064 224.131,123.754 223.765,125.558C213.229,177.381 155.236,199.721 112.856,170.022C108.645,167.072 107.965,166.596 66.797,125.204C46.495,104.793 66.784,79.934 85.53,83.3C96.602,85.289 96.139,87.071 133.623,124.377C146.304,136.998 159.208,120.39 150.367,110.622C148.845,108.941 115.435,75.644 112.391,72.61C86.163,46.47 52.618,53.633 36.346,66.29C-0.461,94.92 10.87,143.338 39.797,161.037C62.644,175.016 81.731,169.035 87.551,167.761C95.474,166.027 99.604,178.224 89.578,180.756C47.572,191.363 9.62,166.208 1.213,125.563C0.876,123.931 0.408,124.194 0,123.5L0,101.5C0.259,101.062 0.816,100.856 1.075,100.418C1.324,99.998 0.927,99.896 2.34,94.453C14.757,46.636 71.397,27.074 110.324,53.772C116.186,57.792 116.214,57.818 158.224,99.777C182.539,124.063 148.451,157.426 124.814,134.181C122.112,131.524 122.246,131.436 91.318,100.682C78.62,88.055 65.825,104.676 74.659,114.353C76.582,116.46 109.586,149.336 112.631,152.369C143.016,182.637 184.47,169.91 201.007,146.132C228.381,106.774 200.009,59.473 161.528,55.265C148.064,53.792 137.826,57.126 137.444,57.201C129.617,58.742 124.614,47.47 135.402,44.182C166.016,34.851 213.804,50.595 223.767,99.441C224.134,101.24 224.659,100.932 224.999,101.5Z" style="fill:white;"/>
    </g>
</svg>
